<svg width="1200" height="675" viewBox="0 0 1200 675" fill="none" xmlns="http://www.w3.org/2000/svg">
<rect width="1200" height="675" fill="#6401E3"/>
<path d="M169.359 383.128C167.396 383.128 166.415 382.595 166.415 381.528V340.312C166.415 338.904 167.119 338.2 168.527 338.2H179.791C184.911 338.2 188.772 339.139 191.375 341.016C194.02 342.851 195.343 345.752 195.343 349.72C195.343 352.365 194.66 354.584 193.295 356.376C191.972 358.168 190.18 359.491 187.919 360.344V360.6C189.156 360.984 190.18 361.837 190.991 363.16C191.844 364.483 192.633 366.104 193.359 368.024L198.543 381.016C198.713 381.485 198.799 381.827 198.799 382.04C198.799 382.765 197.775 383.128 195.727 383.128H194.511C193.785 383.128 193.167 383.043 192.655 382.872C192.143 382.659 191.801 382.381 191.631 382.04L186.703 369.496C185.849 367.32 184.783 365.848 183.503 365.08C182.265 364.312 180.452 363.928 178.063 363.928H173.263V381.528C173.263 382.595 172.281 383.128 170.319 383.128H169.359ZM173.263 357.976H181.007C182.372 357.976 183.588 357.656 184.655 357.016C185.764 356.376 186.639 355.501 187.279 354.392C187.961 353.283 188.303 352.088 188.303 350.808C188.303 348.547 187.599 346.861 186.191 345.752C184.783 344.643 182.905 344.088 180.559 344.088H173.263V357.976ZM219.045 383.448C213.584 383.448 209.552 382.019 206.949 379.16C204.347 376.259 203.045 372.035 203.045 366.488C203.045 362.563 203.643 359.32 204.837 356.76C206.032 354.2 207.76 352.28 210.021 351C212.283 349.72 214.992 349.08 218.149 349.08C221.221 349.08 223.739 349.763 225.701 351.128C227.664 352.493 229.115 354.413 230.053 356.888C231.035 359.363 231.525 362.328 231.525 365.784C231.525 366.04 231.376 366.403 231.077 366.872C230.779 367.341 230.437 367.768 230.053 368.152C229.669 368.536 229.349 368.728 229.093 368.728H209.957C210.213 371.971 211.088 374.339 212.581 375.832C214.075 377.283 216.251 378.008 219.109 378.008C220.859 378.008 222.331 377.795 223.525 377.368C224.763 376.941 225.744 376.536 226.469 376.152C227.237 375.725 227.749 375.512 228.005 375.512C228.347 375.512 228.709 375.768 229.093 376.28C229.477 376.749 229.819 377.283 230.117 377.88C230.416 378.435 230.565 378.861 230.565 379.16C230.565 379.672 230.224 380.184 229.541 380.696C228.901 381.208 228.027 381.677 226.917 382.104C225.808 382.488 224.571 382.808 223.205 383.064C221.84 383.32 220.453 383.448 219.045 383.448ZM209.957 363.608H224.805C224.805 360.664 224.251 358.424 223.141 356.888C222.032 355.309 220.325 354.52 218.021 354.52C215.675 354.52 213.819 355.267 212.453 356.76C211.088 358.211 210.256 360.493 209.957 363.608ZM261.368 396.248C259.406 396.248 258.424 395.736 258.424 394.712V380.504C257.358 381.315 256.142 382.019 254.776 382.616C253.454 383.171 251.875 383.448 250.04 383.448C246.072 383.448 242.872 381.955 240.44 378.968C238.008 375.981 236.792 371.779 236.792 366.36C236.792 362.861 237.304 359.832 238.328 357.272C239.352 354.669 240.782 352.664 242.616 351.256C244.494 349.805 246.691 349.08 249.208 349.08C251.086 349.08 252.835 349.507 254.456 350.36C256.078 351.171 257.55 352.344 258.872 353.88C259 353.325 259.128 352.749 259.256 352.152C259.427 351.555 259.619 350.979 259.832 350.424C259.96 349.997 260.216 349.72 260.6 349.592C260.984 349.464 261.496 349.4 262.136 349.4H262.52C264.184 349.4 265.016 349.933 265.016 351V394.712C265.016 395.736 264.035 396.248 262.072 396.248H261.368ZM251.512 377.88C252.835 377.88 254.072 377.667 255.224 377.24C256.376 376.813 257.443 376.237 258.424 375.512V358.872C257.315 357.592 256.099 356.568 254.776 355.8C253.454 355.032 252.11 354.648 250.744 354.648C248.44 354.648 246.67 355.693 245.432 357.784C244.195 359.832 243.576 362.776 243.576 366.616C243.576 370.243 244.238 373.037 245.56 375C246.883 376.92 248.867 377.88 251.512 377.88ZM284.562 383.448C281.32 383.448 278.802 382.552 277.01 380.76C275.261 378.968 274.386 376.408 274.386 373.08V351C274.386 349.933 275.368 349.4 277.33 349.4H278.034C279.997 349.4 280.978 349.933 280.978 351V372.312C280.978 374.061 281.448 375.427 282.386 376.408C283.368 377.347 284.818 377.816 286.738 377.816C288.146 377.816 289.469 377.411 290.706 376.6C291.986 375.789 293.053 374.787 293.906 373.592V351C293.906 349.933 294.888 349.4 296.85 349.4H297.554C299.517 349.4 300.498 349.933 300.498 351V373.016C300.498 374.893 300.562 376.408 300.69 377.56C300.818 378.712 300.946 379.587 301.074 380.184C301.202 380.781 301.266 381.187 301.266 381.4C301.266 381.741 301.074 382.019 300.69 382.232C300.349 382.445 299.922 382.616 299.41 382.744C298.898 382.872 298.386 382.957 297.874 383C297.362 383.043 296.978 383.064 296.722 383.064C296.168 383.064 295.741 382.829 295.442 382.36C295.144 381.848 294.93 381.251 294.802 380.568C294.674 379.843 294.546 379.181 294.418 378.584C293.181 379.992 291.688 381.165 289.938 382.104C288.232 383 286.44 383.448 284.562 383.448ZM324.795 383.448C319.334 383.448 315.302 382.019 312.699 379.16C310.097 376.259 308.795 372.035 308.795 366.488C308.795 362.563 309.393 359.32 310.587 356.76C311.782 354.2 313.51 352.28 315.771 351C318.033 349.72 320.742 349.08 323.899 349.08C326.971 349.08 329.489 349.763 331.451 351.128C333.414 352.493 334.865 354.413 335.803 356.888C336.785 359.363 337.275 362.328 337.275 365.784C337.275 366.04 337.126 366.403 336.827 366.872C336.529 367.341 336.187 367.768 335.803 368.152C335.419 368.536 335.099 368.728 334.843 368.728H315.707C315.963 371.971 316.838 374.339 318.331 375.832C319.825 377.283 322.001 378.008 324.859 378.008C326.609 378.008 328.081 377.795 329.275 377.368C330.513 376.941 331.494 376.536 332.219 376.152C332.987 375.725 333.499 375.512 333.755 375.512C334.097 375.512 334.459 375.768 334.843 376.28C335.227 376.749 335.569 377.283 335.867 377.88C336.166 378.435 336.315 378.861 336.315 379.16C336.315 379.672 335.974 380.184 335.291 380.696C334.651 381.208 333.777 381.677 332.667 382.104C331.558 382.488 330.321 382.808 328.955 383.064C327.59 383.32 326.203 383.448 324.795 383.448ZM315.707 363.608H330.555C330.555 360.664 330.001 358.424 328.891 356.888C327.782 355.309 326.075 354.52 323.771 354.52C321.425 354.52 319.569 355.267 318.203 356.76C316.838 358.211 316.006 360.493 315.707 363.608ZM352.639 383.576C350.805 383.576 349.098 383.363 347.519 382.936C345.983 382.467 344.725 381.912 343.743 381.272C342.805 380.632 342.335 380.013 342.335 379.416C342.335 379.075 342.485 378.627 342.783 378.072C343.082 377.475 343.423 376.941 343.807 376.472C344.191 375.96 344.554 375.704 344.895 375.704C345.109 375.704 345.514 375.917 346.111 376.344C346.709 376.728 347.519 377.112 348.543 377.496C349.567 377.88 350.762 378.072 352.127 378.072C355.839 378.072 357.695 376.685 357.695 373.912C357.695 372.419 357.119 371.331 355.967 370.648C354.858 369.923 353.429 369.261 351.679 368.664C350.314 368.152 348.97 367.555 347.647 366.872C346.325 366.147 345.237 365.144 344.383 363.864C343.53 362.584 343.103 360.856 343.103 358.68C343.103 356.76 343.551 355.075 344.447 353.624C345.386 352.173 346.666 351.064 348.287 350.296C349.951 349.485 351.85 349.08 353.983 349.08C355.391 349.08 356.757 349.208 358.079 349.464C359.445 349.677 360.575 350.019 361.471 350.488C362.367 350.957 362.815 351.491 362.815 352.088C362.815 352.472 362.687 352.984 362.431 353.624C362.175 354.221 361.877 354.776 361.535 355.288C361.194 355.757 360.853 355.992 360.511 355.992C360.298 355.992 359.701 355.736 358.719 355.224C357.781 354.712 356.458 354.456 354.751 354.456C353.343 354.456 352.149 354.776 351.167 355.416C350.186 356.056 349.695 356.973 349.695 358.168C349.695 359.32 350.079 360.216 350.847 360.856C351.615 361.496 352.938 362.136 354.815 362.776C356.522 363.331 358.079 364.035 359.487 364.888C360.938 365.699 362.09 366.765 362.943 368.088C363.839 369.411 364.287 371.139 364.287 373.272C364.287 375.277 363.797 377.048 362.815 378.584C361.834 380.12 360.469 381.336 358.719 382.232C356.97 383.128 354.943 383.576 352.639 383.576ZM381.317 383.448C380.335 383.448 379.333 383.299 378.309 383C377.285 382.701 376.346 382.211 375.493 381.528C374.682 380.845 374.021 379.907 373.509 378.712C372.997 377.475 372.741 375.96 372.741 374.168V354.968H370.181C369.199 354.968 368.709 354.2 368.709 352.664V351.832C368.709 350.296 369.199 349.528 370.181 349.528H372.741L373.573 343C373.658 341.933 374.469 341.4 376.005 341.4H377.029C378.565 341.4 379.333 341.933 379.333 343V349.528H384.069C385.05 349.528 385.541 350.296 385.541 351.832V352.664C385.541 354.2 385.05 354.968 384.069 354.968H379.333V373.848C379.333 375.469 379.61 376.579 380.165 377.176C380.762 377.731 381.53 378.008 382.469 378.008C383.194 378.008 383.706 377.965 384.005 377.88C384.346 377.752 384.645 377.688 384.901 377.688C385.242 377.688 385.519 377.944 385.733 378.456C385.946 378.968 386.117 379.501 386.245 380.056C386.373 380.611 386.437 380.973 386.437 381.144C386.437 381.827 386.138 382.339 385.541 382.68C384.943 382.979 384.239 383.171 383.429 383.256C382.661 383.384 381.957 383.448 381.317 383.448ZM412.999 383.128C411.079 383.128 410.119 382.595 410.119 381.528V354.968H407.943C406.961 354.968 406.471 354.2 406.471 352.664V351.832C406.471 350.296 406.961 349.528 407.943 349.528H410.119V343.832C410.119 341.955 410.375 340.419 410.887 339.224C411.399 338.029 412.06 337.091 412.871 336.408C413.724 335.683 414.641 335.192 415.623 334.936C416.647 334.68 417.671 334.552 418.695 334.552C419.292 334.552 419.996 334.595 420.807 334.68C421.617 334.765 422.321 334.979 422.919 335.32C423.516 335.619 423.815 336.109 423.815 336.792C423.815 336.963 423.751 337.347 423.623 337.944C423.537 338.499 423.367 339.032 423.111 339.544C422.897 340.056 422.62 340.312 422.279 340.312C422.023 340.312 421.724 340.269 421.383 340.184C421.084 340.056 420.551 339.992 419.783 339.992C419.185 339.992 418.652 340.099 418.183 340.312C417.713 340.525 417.329 340.931 417.031 341.528C416.775 342.083 416.647 342.957 416.647 344.152V349.528H421.511C422.492 349.528 422.983 350.296 422.983 351.832V352.664C422.983 354.2 422.492 354.968 421.511 354.968H416.647V381.528C416.647 382.595 415.665 383.128 413.703 383.128H412.999ZM442.835 383.448C437.971 383.448 434.238 381.976 431.635 379.032C429.075 376.088 427.795 371.864 427.795 366.36C427.795 360.813 429.075 356.547 431.635 353.56C434.238 350.573 437.971 349.08 442.835 349.08C447.657 349.08 451.326 350.573 453.843 353.56C456.403 356.504 457.683 360.771 457.683 366.36C457.683 371.907 456.425 376.152 453.907 379.096C451.433 381.997 447.742 383.448 442.835 383.448ZM442.707 378.008C445.566 378.008 447.657 377.048 448.979 375.128C450.302 373.165 450.963 370.221 450.963 366.296C450.963 362.328 450.302 359.384 448.979 357.464C447.657 355.501 445.566 354.52 442.707 354.52C439.891 354.52 437.822 355.48 436.499 357.4C435.219 359.32 434.579 362.285 434.579 366.296C434.579 370.221 435.219 373.165 436.499 375.128C437.822 377.048 439.891 378.008 442.707 378.008ZM469.161 383.128C467.198 383.128 466.217 382.595 466.217 381.528V359.704C466.217 357.827 466.153 356.312 466.025 355.16C465.897 354.008 465.769 353.133 465.641 352.536C465.513 351.939 465.449 351.555 465.449 351.384C465.449 351.043 465.619 350.765 465.961 350.552C466.345 350.339 466.793 350.168 467.305 350.04C467.817 349.912 468.329 349.827 468.841 349.784C469.353 349.741 469.737 349.72 469.993 349.72C470.547 349.72 470.953 349.955 471.209 350.424C471.507 350.893 471.721 351.469 471.849 352.152C472.019 352.792 472.169 353.389 472.297 353.944C473.278 352.493 474.366 351.32 475.561 350.424C476.798 349.528 478.142 349.08 479.593 349.08C480.915 349.08 481.854 349.336 482.409 349.848C483.006 350.317 483.305 351 483.305 351.896C483.305 352.28 483.241 352.792 483.113 353.432C482.985 354.072 482.814 354.648 482.601 355.16C482.387 355.629 482.131 355.864 481.833 355.864C481.406 355.864 480.979 355.757 480.553 355.544C480.126 355.331 479.422 355.224 478.441 355.224C477.417 355.224 476.478 355.523 475.625 356.12C474.814 356.675 474.153 357.251 473.641 357.848C473.129 358.445 472.83 358.808 472.745 358.936V381.528C472.745 382.595 471.785 383.128 469.865 383.128H469.161ZM503.429 383.128C501.381 383.128 500.357 382.744 500.357 381.976C500.357 381.805 500.379 381.656 500.421 381.528C500.464 381.357 500.507 381.165 500.549 380.952L515.397 339.16C515.653 338.435 516.613 338.072 518.277 338.072H520.517C522.224 338.072 523.184 338.435 523.397 339.16L538.245 381.016C538.373 381.357 538.437 381.677 538.437 381.976C538.437 382.744 537.477 383.128 535.557 383.128H534.405C533.68 383.128 533.061 383.043 532.549 382.872C532.037 382.701 531.696 382.424 531.525 382.04L528.133 372.312H510.405L507.077 382.04C506.907 382.424 506.587 382.701 506.117 382.872C505.648 383.043 505.072 383.128 504.389 383.128H503.429ZM512.453 366.424H526.085L520.261 349.528C520.091 348.931 519.941 348.312 519.813 347.672C519.685 346.989 519.557 346.328 519.429 345.688H519.301C519.173 346.328 519.024 346.989 518.853 347.672C518.725 348.312 518.555 348.931 518.341 349.528L512.453 366.424ZM547.031 383.128C545.069 383.128 544.087 382.595 544.087 381.528V359.704C544.087 357.827 544.023 356.312 543.895 355.16C543.767 354.008 543.639 353.133 543.511 352.536C543.383 351.939 543.319 351.555 543.319 351.384C543.319 351.043 543.49 350.765 543.831 350.552C544.215 350.339 544.663 350.168 545.175 350.04C545.687 349.912 546.199 349.827 546.711 349.784C547.223 349.741 547.607 349.72 547.863 349.72C548.418 349.72 548.845 349.955 549.143 350.424C549.442 350.893 549.655 351.469 549.783 352.152C549.911 352.792 550.039 353.389 550.167 353.944C551.405 352.493 552.877 351.32 554.583 350.424C556.333 349.528 558.146 349.08 560.023 349.08C563.309 349.08 565.826 349.976 567.575 351.768C569.325 353.56 570.199 356.12 570.199 359.448V381.528C570.199 382.595 569.218 383.128 567.255 383.128H566.551C564.589 383.128 563.607 382.595 563.607 381.528V360.216C563.607 358.467 563.117 357.123 562.135 356.184C561.197 355.203 559.767 354.712 557.847 354.712C556.439 354.712 555.095 355.117 553.815 355.928C552.578 356.739 551.533 357.741 550.679 358.936V381.528C550.679 382.595 549.698 383.128 547.735 383.128H547.031ZM582.656 383.128C580.694 383.128 579.712 382.595 579.712 381.528V359.704C579.712 357.827 579.648 356.312 579.52 355.16C579.392 354.008 579.264 353.133 579.136 352.536C579.008 351.939 578.944 351.555 578.944 351.384C578.944 351.043 579.115 350.765 579.456 350.552C579.84 350.339 580.288 350.168 580.8 350.04C581.312 349.912 581.824 349.827 582.336 349.784C582.848 349.741 583.232 349.72 583.488 349.72C584.043 349.72 584.47 349.955 584.768 350.424C585.067 350.893 585.28 351.469 585.408 352.152C585.536 352.792 585.664 353.389 585.792 353.944C587.03 352.493 588.502 351.32 590.208 350.424C591.958 349.528 593.771 349.08 595.648 349.08C598.934 349.08 601.451 349.976 603.2 351.768C604.95 353.56 605.824 356.12 605.824 359.448V381.528C605.824 382.595 604.843 383.128 602.88 383.128H602.176C600.214 383.128 599.232 382.595 599.232 381.528V360.216C599.232 358.467 598.742 357.123 597.76 356.184C596.822 355.203 595.392 354.712 593.472 354.712C592.064 354.712 590.72 355.117 589.44 355.928C588.203 356.739 587.158 357.741 586.304 358.936V381.528C586.304 382.595 585.323 383.128 583.36 383.128H582.656ZM624.937 383.448C621.695 383.448 619.177 382.552 617.385 380.76C615.636 378.968 614.761 376.408 614.761 373.08V351C614.761 349.933 615.743 349.4 617.705 349.4H618.409C620.372 349.4 621.353 349.933 621.353 351V372.312C621.353 374.061 621.823 375.427 622.761 376.408C623.743 377.347 625.193 377.816 627.113 377.816C628.521 377.816 629.844 377.411 631.081 376.6C632.361 375.789 633.428 374.787 634.281 373.592V351C634.281 349.933 635.263 349.4 637.225 349.4H637.929C639.892 349.4 640.873 349.933 640.873 351V373.016C640.873 374.893 640.937 376.408 641.065 377.56C641.193 378.712 641.321 379.587 641.449 380.184C641.577 380.781 641.641 381.187 641.641 381.4C641.641 381.741 641.449 382.019 641.065 382.232C640.724 382.445 640.297 382.616 639.785 382.744C639.273 382.872 638.761 382.957 638.249 383C637.737 383.043 637.353 383.064 637.097 383.064C636.543 383.064 636.116 382.829 635.817 382.36C635.519 381.848 635.305 381.251 635.177 380.568C635.049 379.843 634.921 379.181 634.793 378.584C633.556 379.992 632.063 381.165 630.313 382.104C628.607 383 626.815 383.448 624.937 383.448ZM659.346 383.448C658.365 383.448 657.362 383.299 656.338 383C655.357 382.701 654.44 382.211 653.586 381.528C652.733 380.845 652.05 379.907 651.538 378.712C651.069 377.475 650.834 375.96 650.834 374.168V336.408C650.834 335.341 651.794 334.808 653.714 334.808H654.418C656.381 334.808 657.362 335.341 657.362 336.408V373.848C657.362 375.469 657.661 376.579 658.258 377.176C658.856 377.731 659.602 378.008 660.498 378.008C661.224 378.008 661.736 377.965 662.034 377.88C662.376 377.752 662.674 377.688 662.93 377.688C663.272 377.688 663.549 377.944 663.762 378.456C663.976 378.968 664.146 379.501 664.274 380.056C664.402 380.611 664.466 380.973 664.466 381.144C664.466 381.827 664.168 382.339 663.57 382.68C662.973 382.979 662.269 383.171 661.458 383.256C660.69 383.384 659.986 383.448 659.346 383.448ZM672.842 383.128C670.88 383.128 669.898 382.595 669.898 381.528V359.704C669.898 357.827 669.834 356.312 669.706 355.16C669.578 354.008 669.45 353.133 669.322 352.536C669.194 351.939 669.13 351.555 669.13 351.384C669.13 351.043 669.301 350.765 669.642 350.552C670.026 350.339 670.474 350.168 670.986 350.04C671.498 349.912 672.01 349.827 672.522 349.784C673.034 349.741 673.418 349.72 673.674 349.72C674.229 349.72 674.656 349.955 674.954 350.424C675.253 350.893 675.466 351.469 675.594 352.152C675.765 352.792 675.914 353.389 676.042 353.944C677.066 352.707 678.41 351.597 680.074 350.616C681.738 349.592 683.594 349.08 685.642 349.08C686.837 349.08 688.01 349.229 689.162 349.528C690.314 349.827 691.36 350.36 692.298 351.128C693.28 351.896 694.048 352.941 694.602 354.264C695.754 352.899 697.205 351.704 698.954 350.68C700.746 349.613 702.666 349.08 704.714 349.08C705.909 349.08 707.082 349.251 708.234 349.592C709.386 349.891 710.432 350.424 711.37 351.192C712.352 351.96 713.12 353.027 713.674 354.392C714.272 355.715 714.57 357.4 714.57 359.448V381.528C714.57 382.595 713.589 383.128 711.626 383.128H710.922C708.96 383.128 707.978 382.595 707.978 381.528V360.216C707.978 358.552 707.53 357.229 706.634 356.248C705.738 355.224 704.373 354.712 702.538 354.712C701.429 354.712 700.426 354.947 699.53 355.416C698.677 355.843 697.909 356.376 697.226 357.016C696.586 357.613 696.096 358.168 695.754 358.68C695.413 359.149 695.2 359.427 695.114 359.512L695.05 356.504C695.264 356.973 695.392 357.485 695.434 358.04C695.477 358.552 695.498 359.064 695.498 359.576V381.528C695.498 382.595 694.517 383.128 692.554 383.128H691.914C689.952 383.128 688.97 382.595 688.97 381.528V360.216C688.97 358.552 688.522 357.229 687.626 356.248C686.73 355.224 685.344 354.712 683.466 354.712C682.485 354.712 681.568 354.904 680.714 355.288C679.861 355.672 679.114 356.12 678.474 356.632C677.877 357.144 677.408 357.635 677.066 358.104C676.725 358.531 676.533 358.787 676.49 358.872V381.528C676.49 382.595 675.509 383.128 673.546 383.128H672.842ZM738.42 383.448C732.959 383.448 728.927 382.019 726.324 379.16C723.722 376.259 722.42 372.035 722.42 366.488C722.42 362.563 723.018 359.32 724.212 356.76C725.407 354.2 727.135 352.28 729.396 351C731.658 349.72 734.367 349.08 737.524 349.08C740.596 349.08 743.114 349.763 745.076 351.128C747.039 352.493 748.49 354.413 749.428 356.888C750.41 359.363 750.9 362.328 750.9 365.784C750.9 366.04 750.751 366.403 750.452 366.872C750.154 367.341 749.812 367.768 749.428 368.152C749.044 368.536 748.724 368.728 748.468 368.728H729.332C729.588 371.971 730.463 374.339 731.956 375.832C733.45 377.283 735.626 378.008 738.484 378.008C740.234 378.008 741.706 377.795 742.9 377.368C744.138 376.941 745.119 376.536 745.844 376.152C746.612 375.725 747.124 375.512 747.38 375.512C747.722 375.512 748.084 375.768 748.468 376.28C748.852 376.749 749.194 377.283 749.492 377.88C749.791 378.435 749.94 378.861 749.94 379.16C749.94 379.672 749.599 380.184 748.916 380.696C748.276 381.208 747.402 381.677 746.292 382.104C745.183 382.488 743.946 382.808 742.58 383.064C741.215 383.32 739.828 383.448 738.42 383.448ZM729.332 363.608H744.18C744.18 360.664 743.626 358.424 742.516 356.888C741.407 355.309 739.7 354.52 737.396 354.52C735.05 354.52 733.194 355.267 731.828 356.76C730.463 358.211 729.631 360.493 729.332 363.608ZM761.656 383.128C759.694 383.128 758.712 382.595 758.712 381.528V359.704C758.712 357.827 758.648 356.312 758.52 355.16C758.392 354.008 758.264 353.133 758.136 352.536C758.008 351.939 757.944 351.555 757.944 351.384C757.944 351.043 758.115 350.765 758.456 350.552C758.84 350.339 759.288 350.168 759.8 350.04C760.312 349.912 760.824 349.827 761.336 349.784C761.848 349.741 762.232 349.72 762.488 349.72C763.043 349.72 763.47 349.955 763.768 350.424C764.067 350.893 764.28 351.469 764.408 352.152C764.536 352.792 764.664 353.389 764.792 353.944C766.03 352.493 767.502 351.32 769.208 350.424C770.958 349.528 772.771 349.08 774.648 349.08C777.934 349.08 780.451 349.976 782.2 351.768C783.95 353.56 784.824 356.12 784.824 359.448V381.528C784.824 382.595 783.843 383.128 781.88 383.128H781.176C779.214 383.128 778.232 382.595 778.232 381.528V360.216C778.232 358.467 777.742 357.123 776.76 356.184C775.822 355.203 774.392 354.712 772.472 354.712C771.064 354.712 769.72 355.117 768.44 355.928C767.203 356.739 766.158 357.741 765.304 358.936V381.528C765.304 382.595 764.323 383.128 762.36 383.128H761.656ZM804.129 383.448C803.148 383.448 802.145 383.299 801.121 383C800.097 382.701 799.159 382.211 798.305 381.528C797.495 380.845 796.833 379.907 796.321 378.712C795.809 377.475 795.553 375.96 795.553 374.168V354.968H792.993C792.012 354.968 791.521 354.2 791.521 352.664V351.832C791.521 350.296 792.012 349.528 792.993 349.528H795.553L796.385 343C796.471 341.933 797.281 341.4 798.817 341.4H799.841C801.377 341.4 802.145 341.933 802.145 343V349.528H806.881C807.863 349.528 808.353 350.296 808.353 351.832V352.664C808.353 354.2 807.863 354.968 806.881 354.968H802.145V373.848C802.145 375.469 802.423 376.579 802.977 377.176C803.575 377.731 804.343 378.008 805.281 378.008C806.007 378.008 806.519 377.965 806.817 377.88C807.159 377.752 807.457 377.688 807.713 377.688C808.055 377.688 808.332 377.944 808.545 378.456C808.759 378.968 808.929 379.501 809.057 380.056C809.185 380.611 809.249 380.973 809.249 381.144C809.249 381.827 808.951 382.339 808.353 382.68C807.756 382.979 807.052 383.171 806.241 383.256C805.473 383.384 804.769 383.448 804.129 383.448ZM844.835 383.448C839.971 383.448 836.238 381.976 833.635 379.032C831.075 376.088 829.795 371.864 829.795 366.36C829.795 360.813 831.075 356.547 833.635 353.56C836.238 350.573 839.971 349.08 844.835 349.08C849.657 349.08 853.326 350.573 855.843 353.56C858.403 356.504 859.683 360.771 859.683 366.36C859.683 371.907 858.425 376.152 855.907 379.096C853.433 381.997 849.742 383.448 844.835 383.448ZM844.707 378.008C847.566 378.008 849.657 377.048 850.979 375.128C852.302 373.165 852.963 370.221 852.963 366.296C852.963 362.328 852.302 359.384 850.979 357.464C849.657 355.501 847.566 354.52 844.707 354.52C841.891 354.52 839.822 355.48 838.499 357.4C837.219 359.32 836.579 362.285 836.579 366.296C836.579 370.221 837.219 373.165 838.499 375.128C839.822 377.048 841.891 378.008 844.707 378.008ZM872.249 383.128C870.329 383.128 869.369 382.595 869.369 381.528V354.968H867.193C866.211 354.968 865.721 354.2 865.721 352.664V351.832C865.721 350.296 866.211 349.528 867.193 349.528H869.369V343.832C869.369 341.955 869.625 340.419 870.137 339.224C870.649 338.029 871.31 337.091 872.121 336.408C872.974 335.683 873.891 335.192 874.873 334.936C875.897 334.68 876.921 334.552 877.945 334.552C878.542 334.552 879.246 334.595 880.057 334.68C880.867 334.765 881.571 334.979 882.169 335.32C882.766 335.619 883.065 336.109 883.065 336.792C883.065 336.963 883.001 337.347 882.873 337.944C882.787 338.499 882.617 339.032 882.361 339.544C882.147 340.056 881.87 340.312 881.529 340.312C881.273 340.312 880.974 340.269 880.633 340.184C880.334 340.056 879.801 339.992 879.033 339.992C878.435 339.992 877.902 340.099 877.433 340.312C876.963 340.525 876.579 340.931 876.281 341.528C876.025 342.083 875.897 342.957 875.897 344.152V349.528H880.761C881.742 349.528 882.233 350.296 882.233 351.832V352.664C882.233 354.2 881.742 354.968 880.761 354.968H875.897V381.528C875.897 382.595 874.915 383.128 872.953 383.128H872.249ZM902.804 383.128C900.756 383.128 899.732 382.744 899.732 381.976C899.732 381.805 899.754 381.656 899.796 381.528C899.839 381.357 899.882 381.165 899.924 380.952L914.772 339.16C915.028 338.435 915.988 338.072 917.652 338.072H919.892C921.599 338.072 922.559 338.435 922.772 339.16L937.62 381.016C937.748 381.357 937.812 381.677 937.812 381.976C937.812 382.744 936.852 383.128 934.932 383.128H933.78C933.055 383.128 932.436 383.043 931.924 382.872C931.412 382.701 931.071 382.424 930.9 382.04L927.508 372.312H909.78L906.452 382.04C906.282 382.424 905.962 382.701 905.492 382.872C905.023 383.043 904.447 383.128 903.764 383.128H902.804ZM911.828 366.424H925.46L919.636 349.528C919.466 348.931 919.316 348.312 919.188 347.672C919.06 346.989 918.932 346.328 918.804 345.688H918.676C918.548 346.328 918.399 346.989 918.228 347.672C918.1 348.312 917.93 348.931 917.716 349.528L911.828 366.424ZM964.262 371.032C963.494 371.032 962.918 370.712 962.534 370.072L952.166 351.896C951.868 351.469 951.59 351.021 951.334 350.552C951.121 350.083 950.886 349.613 950.63 349.144L950.374 349.208C950.46 349.763 950.502 350.339 950.502 350.936C950.502 351.491 950.502 352.045 950.502 352.6V381.528C950.502 382.595 949.521 383.128 947.558 383.128H946.726C944.764 383.128 943.782 382.595 943.782 381.528V339.672C943.782 338.605 944.764 338.072 946.726 338.072H949.35C950.161 338.072 950.822 338.2 951.334 338.456C951.846 338.669 952.209 338.989 952.422 339.416L964.07 359.768C964.326 360.237 964.582 360.749 964.838 361.304C965.094 361.859 965.286 362.413 965.414 362.968C965.628 362.413 965.884 361.837 966.182 361.24C966.524 360.6 966.801 360.067 967.014 359.64L978.534 339.416C978.79 338.989 979.153 338.669 979.622 338.456C980.134 338.2 980.796 338.072 981.606 338.072H984.038C986.001 338.072 986.982 338.605 986.982 339.672V381.528C986.982 382.595 986.001 383.128 984.038 383.128H983.206C981.244 383.128 980.262 382.595 980.262 381.528V352.92C980.262 352.323 980.262 351.747 980.262 351.192C980.305 350.595 980.348 350.019 980.39 349.464L980.134 349.4C979.878 349.912 979.622 350.403 979.366 350.872C979.153 351.299 978.897 351.747 978.598 352.216L968.358 370.072C967.974 370.712 967.398 371.032 966.63 371.032H964.262ZM1000.28 383C998.872 383 998.168 382.296 998.168 380.888V339.672C998.168 338.605 999.149 338.072 1001.11 338.072H1002.07C1004.03 338.072 1005.02 338.605 1005.02 339.672V377.112H1021.53C1022.51 377.112 1023 377.88 1023 379.416V380.696C1023 382.232 1022.51 383 1021.53 383H1000.28ZM1040.3 383.384C1038.21 383.384 1036.29 383.043 1034.54 382.36C1032.79 381.677 1031.3 380.653 1030.06 379.288C1028.87 377.923 1027.93 376.237 1027.25 374.232C1026.61 372.184 1026.29 369.795 1026.29 367.064C1026.29 363.693 1026.71 360.643 1027.57 357.912C1028.46 355.139 1029.62 352.685 1031.02 350.552C1032.47 348.419 1034.03 346.563 1035.7 344.984C1037.36 343.363 1039 342.061 1040.62 341.08C1042.25 340.056 1043.67 339.288 1044.91 338.776C1046.15 338.264 1047.05 338.008 1047.6 338.008C1048.15 338.008 1048.6 338.285 1048.94 338.84C1049.29 339.352 1049.54 339.928 1049.71 340.568C1049.93 341.208 1050.03 341.677 1050.03 341.976C1050.03 342.147 1049.99 342.317 1049.9 342.488C1049.86 342.659 1049.71 342.787 1049.46 342.872C1045.45 344.408 1042.16 346.563 1039.6 349.336C1037.04 352.067 1035.23 355.16 1034.16 358.616C1035.23 357.976 1036.4 357.485 1037.68 357.144C1039 356.803 1040.5 356.632 1042.16 356.632C1043.74 356.632 1045.25 356.909 1046.7 357.464C1048.15 358.019 1049.46 358.851 1050.61 359.96C1051.8 361.069 1052.74 362.456 1053.42 364.12C1054.15 365.741 1054.51 367.619 1054.51 369.752C1054.51 371.971 1054.13 373.933 1053.36 375.64C1052.63 377.304 1051.61 378.712 1050.29 379.864C1048.97 381.016 1047.45 381.891 1045.74 382.488C1044.04 383.085 1042.22 383.384 1040.3 383.384ZM1040.56 377.944C1041.67 377.944 1042.78 377.645 1043.89 377.048C1045.04 376.451 1045.98 375.576 1046.7 374.424C1047.47 373.272 1047.86 371.8 1047.86 370.008C1047.86 368.131 1047.49 366.616 1046.77 365.464C1046.09 364.312 1045.17 363.459 1044.02 362.904C1042.86 362.349 1041.61 362.072 1040.24 362.072C1038.79 362.072 1037.45 362.285 1036.21 362.712C1035.01 363.139 1033.97 363.587 1033.07 364.056C1033.03 364.653 1032.99 365.272 1032.94 365.912C1032.9 366.509 1032.88 367.085 1032.88 367.64C1032.88 370.371 1033.26 372.483 1034.03 373.976C1034.8 375.469 1035.78 376.515 1036.98 377.112C1038.17 377.667 1039.37 377.944 1040.56 377.944ZM1060.15 390.616C1059.77 390.616 1059.3 390.531 1058.75 390.36C1058.23 390.189 1057.98 389.912 1057.98 389.528C1057.98 389.272 1058.04 388.995 1058.17 388.696C1058.3 388.397 1058.43 388.099 1058.55 387.8C1059.19 386.52 1059.73 385.048 1060.15 383.384C1060.58 381.763 1060.79 379.8 1060.79 377.496C1060.79 376.813 1061.03 376.28 1061.5 375.896C1061.97 375.469 1062.71 375.256 1063.74 375.256H1064.44C1065.42 375.256 1066.15 375.448 1066.62 375.832C1067.13 376.216 1067.39 376.707 1067.39 377.304C1067.39 379.181 1067.13 380.931 1066.62 382.552C1066.11 384.173 1065.44 385.581 1064.63 386.776C1063.87 388.013 1063.08 388.952 1062.27 389.592C1061.46 390.275 1060.75 390.616 1060.15 390.616ZM378.648 447.128C376.6 447.128 375.576 446.744 375.576 445.976C375.576 445.805 375.597 445.656 375.64 445.528C375.683 445.357 375.725 445.165 375.768 444.952L390.616 403.16C390.872 402.435 391.832 402.072 393.496 402.072H395.736C397.443 402.072 398.403 402.435 398.616 403.16L413.464 445.016C413.592 445.357 413.656 445.677 413.656 445.976C413.656 446.744 412.696 447.128 410.776 447.128H409.624C408.899 447.128 408.28 447.043 407.768 446.872C407.256 446.701 406.915 446.424 406.744 446.04L403.352 436.312H385.624L382.296 446.04C382.125 446.424 381.805 446.701 381.336 446.872C380.867 447.043 380.291 447.128 379.608 447.128H378.648ZM387.672 430.424H401.304L395.48 413.528C395.309 412.931 395.16 412.312 395.032 411.672C394.904 410.989 394.776 410.328 394.648 409.688H394.52C394.392 410.328 394.243 410.989 394.072 411.672C393.944 412.312 393.773 412.931 393.56 413.528L387.672 430.424ZM440.106 435.032C439.338 435.032 438.762 434.712 438.378 434.072L428.01 415.896C427.711 415.469 427.434 415.021 427.178 414.552C426.965 414.083 426.73 413.613 426.474 413.144L426.218 413.208C426.303 413.763 426.346 414.339 426.346 414.936C426.346 415.491 426.346 416.045 426.346 416.6V445.528C426.346 446.595 425.365 447.128 423.402 447.128H422.57C420.607 447.128 419.626 446.595 419.626 445.528V403.672C419.626 402.605 420.607 402.072 422.57 402.072H425.194C426.005 402.072 426.666 402.2 427.178 402.456C427.69 402.669 428.053 402.989 428.266 403.416L439.914 423.768C440.17 424.237 440.426 424.749 440.682 425.304C440.938 425.859 441.13 426.413 441.258 426.968C441.471 426.413 441.727 425.837 442.026 425.24C442.367 424.6 442.645 424.067 442.858 423.64L454.378 403.416C454.634 402.989 454.997 402.669 455.466 402.456C455.978 402.2 456.639 402.072 457.45 402.072H459.882C461.845 402.072 462.826 402.605 462.826 403.672V445.528C462.826 446.595 461.845 447.128 459.882 447.128H459.05C457.087 447.128 456.106 446.595 456.106 445.528V416.92C456.106 416.323 456.106 415.747 456.106 415.192C456.149 414.595 456.191 414.019 456.234 413.464L455.978 413.4C455.722 413.912 455.466 414.403 455.21 414.872C454.997 415.299 454.741 415.747 454.442 416.216L444.202 434.072C443.818 434.712 443.242 435.032 442.474 435.032H440.106ZM476.124 447C474.716 447 474.012 446.296 474.012 444.888V403.672C474.012 402.605 474.993 402.072 476.956 402.072H477.916C479.878 402.072 480.86 402.605 480.86 403.672V441.112H497.372C498.353 441.112 498.844 441.88 498.844 443.416V444.696C498.844 446.232 498.353 447 497.372 447H476.124ZM502.836 447.128C500.788 447.128 499.764 446.744 499.764 445.976C499.764 445.805 499.785 445.656 499.828 445.528C499.87 445.357 499.913 445.165 499.956 444.952L514.804 403.16C515.06 402.435 516.02 402.072 517.684 402.072H519.924C521.63 402.072 522.59 402.435 522.804 403.16L537.652 445.016C537.78 445.357 537.844 445.677 537.844 445.976C537.844 446.744 536.884 447.128 534.964 447.128H533.812C533.086 447.128 532.468 447.043 531.956 446.872C531.444 446.701 531.102 446.424 530.932 446.04L527.54 436.312H509.812L506.484 446.04C506.313 446.424 505.993 446.701 505.524 446.872C505.054 447.043 504.478 447.128 503.796 447.128H502.836ZM511.86 430.424H525.492L519.668 413.528C519.497 412.931 519.348 412.312 519.22 411.672C519.092 410.989 518.964 410.328 518.836 409.688H518.708C518.58 410.328 518.43 410.989 518.26 411.672C518.132 412.312 517.961 412.931 517.748 413.528L511.86 430.424ZM540.998 454.616C540.614 454.616 540.144 454.531 539.59 454.36C539.078 454.189 538.822 453.912 538.822 453.528C538.822 453.272 538.886 452.995 539.014 452.696C539.142 452.397 539.27 452.099 539.398 451.8C540.038 450.52 540.571 449.048 540.998 447.384C541.424 445.763 541.638 443.8 541.638 441.496C541.638 440.813 541.872 440.28 542.342 439.896C542.811 439.469 543.558 439.256 544.582 439.256H545.286C546.267 439.256 546.992 439.448 547.462 439.832C547.974 440.216 548.23 440.707 548.23 441.304C548.23 443.181 547.974 444.931 547.462 446.552C546.95 448.173 546.288 449.581 545.478 450.776C544.71 452.013 543.92 452.952 543.11 453.592C542.299 454.275 541.595 454.616 540.998 454.616ZM580.004 447.448C576.804 447.448 574.244 446.637 572.324 445.016C570.447 443.352 569.508 440.984 569.508 437.912C569.508 435.608 570.02 433.709 571.044 432.216C572.068 430.68 573.497 429.485 575.332 428.632C577.209 427.736 579.385 427.117 581.86 426.776C584.335 426.392 587.023 426.2 589.924 426.2V423.448C589.924 422.04 589.433 420.867 588.452 419.928C587.513 418.989 585.849 418.52 583.46 418.52C581.668 418.52 580.089 418.733 578.724 419.16C577.401 419.587 576.335 420.013 575.524 420.44C574.756 420.867 574.244 421.08 573.988 421.08C573.647 421.08 573.284 420.824 572.9 420.312C572.516 419.8 572.175 419.245 571.876 418.648C571.577 418.008 571.428 417.56 571.428 417.304C571.428 416.707 571.983 416.088 573.092 415.448C574.201 414.765 575.673 414.211 577.508 413.784C579.343 413.315 581.348 413.08 583.524 413.08C586.383 413.08 588.772 413.507 590.692 414.36C592.612 415.171 594.041 416.344 594.98 417.88C595.961 419.416 596.452 421.229 596.452 423.32V437.016C596.452 438.893 596.516 440.408 596.644 441.56C596.772 442.712 596.9 443.587 597.028 444.184C597.156 444.781 597.22 445.187 597.22 445.4C597.22 445.741 597.028 446.019 596.644 446.232C596.303 446.445 595.876 446.616 595.364 446.744C594.852 446.872 594.34 446.957 593.828 447C593.359 447.043 592.996 447.064 592.74 447.064C592.185 447.064 591.759 446.829 591.46 446.36C591.161 445.848 590.927 445.251 590.756 444.568C590.628 443.843 590.5 443.181 590.372 442.584C589.775 443.309 588.985 444.056 588.004 444.824C587.023 445.549 585.871 446.168 584.548 446.68C583.268 447.192 581.753 447.448 580.004 447.448ZM581.092 441.944C583.14 441.944 584.847 441.517 586.212 440.664C587.62 439.811 588.857 438.808 589.924 437.656V431.256C588.303 431.256 586.681 431.32 585.06 431.448C583.481 431.576 582.009 431.832 580.644 432.216C579.321 432.6 578.255 433.219 577.444 434.072C576.676 434.883 576.292 435.992 576.292 437.4C576.292 438.851 576.697 439.981 577.508 440.792C578.319 441.56 579.513 441.944 581.092 441.944ZM609.375 447.128C607.412 447.128 606.431 446.595 606.431 445.528V423.704C606.431 421.827 606.367 420.312 606.239 419.16C606.111 418.008 605.983 417.133 605.855 416.536C605.727 415.939 605.663 415.555 605.663 415.384C605.663 415.043 605.834 414.765 606.175 414.552C606.559 414.339 607.007 414.168 607.519 414.04C608.031 413.912 608.543 413.827 609.055 413.784C609.567 413.741 609.951 413.72 610.207 413.72C610.762 413.72 611.188 413.955 611.487 414.424C611.786 414.893 611.999 415.469 612.127 416.152C612.255 416.792 612.383 417.389 612.511 417.944C613.748 416.493 615.22 415.32 616.927 414.424C618.676 413.528 620.49 413.08 622.367 413.08C625.652 413.08 628.17 413.976 629.919 415.768C631.668 417.56 632.543 420.12 632.543 423.448V445.528C632.543 446.595 631.562 447.128 629.599 447.128H628.895C626.932 447.128 625.951 446.595 625.951 445.528V424.216C625.951 422.467 625.46 421.123 624.479 420.184C623.54 419.203 622.111 418.712 620.191 418.712C618.783 418.712 617.439 419.117 616.159 419.928C614.922 420.739 613.876 421.741 613.023 422.936V445.528C613.023 446.595 612.042 447.128 610.079 447.128H609.375ZM652.424 447.448C649.949 447.448 647.795 446.744 645.96 445.336C644.125 443.885 642.696 441.88 641.672 439.32C640.648 436.717 640.136 433.709 640.136 430.296C640.136 424.792 641.331 420.547 643.72 417.56C646.152 414.573 649.331 413.08 653.256 413.08C655.133 413.08 656.733 413.357 658.056 413.912C659.379 414.467 660.595 415.171 661.704 416.024V400.408C661.704 399.341 662.664 398.808 664.584 398.808H665.288C667.251 398.808 668.232 399.341 668.232 400.408V437.016C668.232 438.893 668.296 440.408 668.424 441.56C668.552 442.712 668.68 443.587 668.808 444.184C668.936 444.781 669 445.187 669 445.4C669 445.741 668.808 446.019 668.424 446.232C668.083 446.445 667.656 446.616 667.144 446.744C666.632 446.872 666.12 446.957 665.608 447C665.096 447.043 664.712 447.064 664.456 447.064C663.901 447.064 663.475 446.829 663.176 446.36C662.92 445.848 662.707 445.251 662.536 444.568C662.408 443.843 662.28 443.203 662.152 442.648C660.829 444.184 659.336 445.379 657.672 446.232C656.051 447.043 654.301 447.448 652.424 447.448ZM654.024 441.88C655.389 441.88 656.733 441.496 658.056 440.728C659.379 439.96 660.595 438.936 661.704 437.656V421.016C660.723 420.248 659.656 419.672 658.504 419.288C657.352 418.861 656.115 418.648 654.792 418.648C652.189 418.648 650.227 419.629 648.904 421.592C647.581 423.512 646.92 426.285 646.92 429.912C646.92 433.752 647.517 436.717 648.712 438.808C649.949 440.856 651.72 441.88 654.024 441.88ZM692.211 447.128C690.163 447.128 689.139 446.744 689.139 445.976C689.139 445.805 689.16 445.656 689.203 445.528C689.245 445.357 689.288 445.165 689.331 444.952L704.179 403.16C704.435 402.435 705.395 402.072 707.059 402.072H709.299C711.005 402.072 711.965 402.435 712.179 403.16L727.027 445.016C727.155 445.357 727.219 445.677 727.219 445.976C727.219 446.744 726.259 447.128 724.339 447.128H723.187C722.461 447.128 721.843 447.043 721.331 446.872C720.819 446.701 720.477 446.424 720.307 446.04L716.915 436.312H699.187L695.859 446.04C695.688 446.424 695.368 446.701 694.899 446.872C694.429 447.043 693.853 447.128 693.171 447.128H692.211ZM701.235 430.424H714.867L709.043 413.528C708.872 412.931 708.723 412.312 708.595 411.672C708.467 410.989 708.339 410.328 708.211 409.688H708.083C707.955 410.328 707.805 410.989 707.635 411.672C707.507 412.312 707.336 412.931 707.123 413.528L701.235 430.424ZM753.669 435.032C752.901 435.032 752.325 434.712 751.941 434.072L741.573 415.896C741.274 415.469 740.997 415.021 740.741 414.552C740.527 414.083 740.293 413.613 740.037 413.144L739.781 413.208C739.866 413.763 739.909 414.339 739.909 414.936C739.909 415.491 739.909 416.045 739.909 416.6V445.528C739.909 446.595 738.927 447.128 736.965 447.128H736.133C734.17 447.128 733.189 446.595 733.189 445.528V403.672C733.189 402.605 734.17 402.072 736.133 402.072H738.757C739.567 402.072 740.229 402.2 740.741 402.456C741.253 402.669 741.615 402.989 741.829 403.416L753.477 423.768C753.733 424.237 753.989 424.749 754.245 425.304C754.501 425.859 754.693 426.413 754.821 426.968C755.034 426.413 755.29 425.837 755.589 425.24C755.93 424.6 756.207 424.067 756.421 423.64L767.941 403.416C768.197 402.989 768.559 402.669 769.029 402.456C769.541 402.2 770.202 402.072 771.013 402.072H773.445C775.407 402.072 776.389 402.605 776.389 403.672V445.528C776.389 446.595 775.407 447.128 773.445 447.128H772.613C770.65 447.128 769.669 446.595 769.669 445.528V416.92C769.669 416.323 769.669 415.747 769.669 415.192C769.711 414.595 769.754 414.019 769.797 413.464L769.541 413.4C769.285 413.912 769.029 414.403 768.773 414.872C768.559 415.299 768.303 415.747 768.005 416.216L757.765 434.072C757.381 434.712 756.805 435.032 756.037 435.032H753.669ZM789.686 447C788.278 447 787.574 446.296 787.574 444.888V403.672C787.574 402.605 788.555 402.072 790.518 402.072H791.478C793.441 402.072 794.422 402.605 794.422 403.672V441.112H810.934C811.915 441.112 812.406 441.88 812.406 443.416V444.696C812.406 446.232 811.915 447 810.934 447H789.686ZM819.436 447C818.028 447 817.324 446.296 817.324 444.888V404.312C817.324 402.904 818.028 402.2 819.436 402.2H832.556C836.439 402.2 839.873 402.968 842.86 404.504C845.889 405.997 848.257 408.387 849.964 411.672C851.671 414.957 852.524 419.267 852.524 424.6C852.524 428.611 852.033 432.045 851.052 434.904C850.071 437.72 848.684 440.024 846.892 441.816C845.143 443.565 843.052 444.867 840.62 445.72C838.188 446.573 835.5 447 832.556 447H819.436ZM824.172 441.112H832.236C834.839 441.112 837.121 440.557 839.084 439.448C841.089 438.296 842.647 436.525 843.756 434.136C844.908 431.704 845.484 428.525 845.484 424.6C845.484 420.675 844.908 417.517 843.756 415.128C842.647 412.696 841.089 410.925 839.084 409.816C837.121 408.664 834.839 408.088 832.236 408.088H824.172V441.112ZM477.031 511.064C476.178 511.064 475.751 510.829 475.751 510.36V489.56C475.751 488.92 476.071 488.6 476.711 488.6H483.207C483.89 488.6 484.637 488.675 485.447 488.824C486.279 488.973 487.058 489.272 487.783 489.72C488.53 490.147 489.138 490.776 489.607 491.608C490.098 492.44 490.343 493.528 490.343 494.872C490.343 496.045 490.162 497.027 489.799 497.816C489.437 498.605 488.978 499.245 488.423 499.736C487.869 500.205 487.271 500.568 486.631 500.824C486.013 501.08 485.426 501.251 484.871 501.336C484.317 501.421 483.869 501.464 483.527 501.464H478.567V510.36C478.567 510.829 478.141 511.064 477.287 511.064H477.031ZM478.567 499.032H483.559C483.879 499.032 484.253 498.979 484.679 498.872C485.127 498.765 485.554 498.563 485.959 498.264C486.386 497.965 486.738 497.549 487.015 497.016C487.293 496.461 487.431 495.747 487.431 494.872C487.431 493.805 487.197 493.005 486.727 492.472C486.279 491.917 485.725 491.544 485.063 491.352C484.402 491.139 483.751 491.032 483.111 491.032H478.567V499.032ZM497.696 511.192C496.139 511.192 494.838 510.808 493.792 510.04C492.747 509.251 492.224 508.035 492.224 506.392C492.224 505.048 492.544 503.992 493.184 503.224C493.824 502.435 494.667 501.859 495.712 501.496C496.758 501.112 497.899 500.867 499.136 500.76C500.395 500.653 501.632 500.589 502.848 500.568V499.064C502.848 498.339 502.592 497.709 502.08 497.176C501.568 496.643 500.651 496.376 499.328 496.376C498.368 496.376 497.526 496.493 496.8 496.728C496.096 496.941 495.531 497.165 495.104 497.4C494.699 497.613 494.443 497.72 494.336 497.72C494.187 497.72 494.027 497.613 493.856 497.4C493.686 497.187 493.536 496.952 493.408 496.696C493.28 496.419 493.216 496.227 493.216 496.12C493.216 495.843 493.494 495.544 494.048 495.224C494.603 494.904 495.339 494.637 496.256 494.424C497.174 494.189 498.166 494.072 499.232 494.072C500.555 494.072 501.686 494.275 502.624 494.68C503.563 495.064 504.278 495.629 504.768 496.376C505.28 497.123 505.536 498.029 505.536 499.096V506.264C505.536 507.139 505.568 507.864 505.632 508.44C505.696 509.016 505.76 509.453 505.824 509.752C505.888 510.051 505.92 510.232 505.92 510.296C505.92 510.445 505.846 510.573 505.696 510.68C505.568 510.765 505.408 510.84 505.216 510.904C505.024 510.947 504.832 510.979 504.64 511C504.448 511.021 504.299 511.032 504.192 511.032C503.936 511.032 503.734 510.915 503.584 510.68C503.456 510.424 503.35 510.125 503.264 509.784C503.2 509.421 503.136 509.091 503.072 508.792C502.667 509.24 502.198 509.645 501.664 510.008C501.131 510.371 500.534 510.659 499.872 510.872C499.232 511.085 498.507 511.192 497.696 511.192ZM497.824 508.856C498.998 508.856 499.968 508.632 500.736 508.184C501.504 507.736 502.208 507.224 502.848 506.648V502.872C502.016 502.872 501.152 502.904 500.256 502.968C499.36 503.011 498.518 503.128 497.728 503.32C496.939 503.512 496.299 503.843 495.808 504.312C495.339 504.76 495.104 505.4 495.104 506.232C495.104 507.085 495.328 507.736 495.776 508.184C496.246 508.632 496.928 508.856 497.824 508.856ZM512.254 511.064C511.4 511.064 510.974 510.829 510.974 510.36V499.128C510.974 498.253 510.942 497.528 510.878 496.952C510.814 496.376 510.75 495.939 510.686 495.64C510.622 495.32 510.59 495.139 510.59 495.096C510.59 494.947 510.654 494.829 510.782 494.744C510.931 494.637 511.102 494.563 511.294 494.52C511.486 494.456 511.678 494.413 511.87 494.392C512.062 494.371 512.211 494.36 512.318 494.36C512.574 494.36 512.766 494.477 512.894 494.712C513.043 494.947 513.15 495.235 513.214 495.576C513.299 495.896 513.374 496.195 513.438 496.472C513.992 495.704 514.579 495.117 515.198 494.712C515.838 494.285 516.488 494.072 517.15 494.072C517.768 494.072 518.227 494.179 518.526 494.392C518.846 494.584 519.006 494.893 519.006 495.32C519.006 495.512 518.974 495.747 518.91 496.024C518.867 496.301 518.792 496.547 518.686 496.76C518.6 496.952 518.494 497.048 518.366 497.048C518.152 497.048 517.939 496.995 517.726 496.888C517.534 496.76 517.16 496.696 516.606 496.696C516.051 496.696 515.55 496.856 515.102 497.176C514.654 497.496 514.302 497.827 514.046 498.168C513.79 498.488 513.662 498.648 513.662 498.648V510.36C513.662 510.829 513.235 511.064 512.382 511.064H512.254ZM524.005 511.064C523.151 511.064 522.725 510.829 522.725 510.36V494.904C522.725 494.435 523.151 494.2 524.005 494.2H524.133C524.986 494.2 525.413 494.435 525.413 494.904V510.36C525.413 510.829 524.986 511.064 524.133 511.064H524.005ZM524.069 491.96C523.557 491.96 523.194 491.896 522.981 491.768C522.767 491.64 522.661 491.469 522.661 491.256V489.336C522.661 489.123 522.767 488.952 522.981 488.824C523.194 488.696 523.557 488.632 524.069 488.632C524.581 488.632 524.943 488.696 525.157 488.824C525.37 488.931 525.477 489.101 525.477 489.336V491.256C525.477 491.469 525.37 491.64 525.157 491.768C524.943 491.896 524.581 491.96 524.069 491.96ZM534.617 511.288C533.657 511.288 532.793 511.171 532.025 510.936C531.257 510.701 530.649 510.424 530.201 510.104C529.753 509.784 529.529 509.507 529.529 509.272C529.529 509.144 529.593 508.952 529.721 508.696C529.849 508.44 529.999 508.205 530.169 507.992C530.34 507.779 530.5 507.672 530.649 507.672C530.735 507.672 530.927 507.779 531.225 507.992C531.524 508.205 531.94 508.419 532.473 508.632C533.028 508.845 533.679 508.952 534.425 508.952C536.516 508.952 537.561 508.163 537.561 506.584C537.561 505.731 537.252 505.112 536.633 504.728C536.036 504.323 535.279 503.971 534.361 503.672C533.615 503.416 532.9 503.117 532.217 502.776C531.535 502.413 530.98 501.912 530.553 501.272C530.127 500.632 529.913 499.768 529.913 498.68C529.913 497.784 530.137 496.984 530.585 496.28C531.055 495.576 531.684 495.032 532.473 494.648C533.284 494.243 534.201 494.04 535.225 494.04C535.951 494.04 536.633 494.104 537.273 494.232C537.913 494.36 538.436 494.531 538.841 494.744C539.247 494.957 539.449 495.181 539.449 495.416C539.449 495.587 539.385 495.811 539.257 496.088C539.151 496.365 539.023 496.611 538.873 496.824C538.724 497.037 538.575 497.144 538.425 497.144C538.34 497.144 538.052 497.005 537.561 496.728C537.071 496.451 536.388 496.312 535.513 496.312C534.724 496.312 534.052 496.504 533.497 496.888C532.943 497.251 532.665 497.773 532.665 498.456C532.665 499.053 532.836 499.533 533.177 499.896C533.519 500.237 534.18 500.568 535.161 500.888C536.143 501.208 537.017 501.592 537.785 502.04C538.553 502.467 539.161 503.021 539.609 503.704C540.057 504.365 540.281 505.229 540.281 506.296C540.281 507.256 540.025 508.109 539.513 508.856C539.023 509.603 538.351 510.2 537.497 510.648C536.644 511.075 535.684 511.288 534.617 511.288ZM542.876 514.712C542.705 514.712 542.503 514.68 542.268 514.616C542.055 514.552 541.948 514.424 541.948 514.232C541.948 514.125 541.98 513.997 542.044 513.848C542.108 513.72 542.172 513.592 542.236 513.464C542.599 512.76 542.865 512.013 543.036 511.224C543.228 510.435 543.324 509.549 543.324 508.568C543.324 508.269 543.431 508.024 543.644 507.832C543.857 507.64 544.177 507.544 544.604 507.544H544.892C545.297 507.544 545.607 507.629 545.82 507.8C546.055 507.949 546.172 508.163 546.172 508.44C546.172 509.4 546.055 510.264 545.82 511.032C545.585 511.8 545.287 512.461 544.924 513.016C544.561 513.571 544.188 513.987 543.804 514.264C543.441 514.563 543.132 514.712 542.876 514.712ZM558.955 511.192C558.657 511.192 558.315 511.181 557.931 511.16C557.569 511.139 557.217 511.085 556.875 511C556.534 510.936 556.257 510.84 556.043 510.712C555.83 510.563 555.723 510.381 555.723 510.168C555.723 510.125 555.745 509.965 555.787 509.688C555.83 509.389 555.905 509.101 556.011 508.824C556.118 508.547 556.257 508.408 556.427 508.408C556.555 508.408 556.79 508.461 557.131 508.568C557.494 508.653 557.931 508.696 558.443 508.696C560.022 508.696 561.163 508.387 561.867 507.768C562.571 507.128 562.923 506.125 562.923 504.76V489.24C562.923 488.771 563.35 488.536 564.203 488.536H564.459C565.313 488.536 565.739 488.771 565.739 489.24V504.44C565.739 505.784 565.515 506.968 565.067 507.992C564.619 508.995 563.894 509.784 562.891 510.36C561.91 510.915 560.598 511.192 558.955 511.192ZM576.022 511.192C574.401 511.192 573.121 510.733 572.182 509.816C571.265 508.899 570.806 507.629 570.806 506.008V494.904C570.806 494.435 571.233 494.2 572.086 494.2H572.214C573.068 494.2 573.494 494.435 573.494 494.904V505.752C573.494 506.733 573.772 507.501 574.326 508.056C574.902 508.589 575.713 508.856 576.758 508.856C577.484 508.856 578.198 508.653 578.902 508.248C579.628 507.843 580.257 507.299 580.79 506.616V494.904C580.79 494.435 581.217 494.2 582.07 494.2H582.198C583.052 494.2 583.478 494.435 583.478 494.904V506.264C583.478 507.139 583.51 507.864 583.574 508.44C583.638 509.016 583.702 509.453 583.766 509.752C583.83 510.051 583.862 510.232 583.862 510.296C583.862 510.445 583.788 510.573 583.638 510.68C583.51 510.765 583.35 510.84 583.158 510.904C582.966 510.947 582.774 510.979 582.582 511C582.39 511.021 582.241 511.032 582.134 511.032C581.878 511.032 581.676 510.915 581.526 510.68C581.398 510.424 581.292 510.125 581.206 509.784C581.142 509.421 581.078 509.091 581.014 508.792C580.353 509.539 579.574 510.125 578.678 510.552C577.804 510.979 576.918 511.192 576.022 511.192ZM592.971 511.192C592.565 511.192 592.128 511.128 591.659 511C591.189 510.893 590.741 510.691 590.315 510.392C589.888 510.072 589.536 509.624 589.259 509.048C588.981 508.451 588.843 507.693 588.843 506.776V487.64C588.843 487.171 589.269 486.936 590.123 486.936H590.251C591.104 486.936 591.531 487.171 591.531 487.64V506.52C591.531 507.48 591.701 508.12 592.043 508.44C592.384 508.739 592.789 508.888 593.259 508.888C593.728 508.888 594.037 508.867 594.187 508.824C594.336 508.76 594.485 508.728 594.635 508.728C594.784 508.728 594.901 508.835 594.987 509.048C595.093 509.261 595.168 509.496 595.211 509.752C595.275 509.987 595.307 510.147 595.307 510.232C595.307 510.509 595.168 510.723 594.891 510.872C594.635 511 594.325 511.085 593.963 511.128C593.6 511.171 593.269 511.192 592.971 511.192ZM599.886 517.656C599.182 517.656 598.83 517.485 598.83 517.144C598.83 517.101 598.83 517.048 598.83 516.984C598.852 516.941 598.905 516.813 598.99 516.6L602.094 509.08V511.16L596.078 495.16C596.057 495.117 596.036 495.053 596.014 494.968C595.993 494.883 595.982 494.808 595.982 494.744C595.982 494.381 596.441 494.2 597.358 494.2H597.614C597.934 494.2 598.212 494.243 598.446 494.328C598.681 494.392 598.83 494.52 598.894 494.712L602.158 503.384C602.35 503.917 602.532 504.461 602.702 505.016C602.873 505.571 603.033 506.104 603.182 506.616H603.246C603.417 506.125 603.588 505.592 603.758 505.016C603.929 504.419 604.11 503.875 604.302 503.384L607.502 494.712C607.566 494.52 607.716 494.392 607.95 494.328C608.185 494.243 608.473 494.2 608.814 494.2H608.91C609.764 494.2 610.19 494.381 610.19 494.744C610.19 494.851 610.158 495 610.094 495.192L601.87 516.984C601.785 517.219 601.604 517.389 601.326 517.496C601.07 517.603 600.75 517.656 600.366 517.656H599.886ZM621.06 511C620.633 511 620.42 510.68 620.42 510.04V509.656C620.42 509.016 620.633 508.696 621.06 508.696H626.628V491.448L620.964 492.408C620.815 492.408 620.687 492.312 620.58 492.12C620.495 491.928 620.431 491.704 620.388 491.448C620.345 491.192 620.324 490.968 620.324 490.776C620.324 490.456 620.516 490.253 620.9 490.168L628.324 488.536C628.559 488.536 628.783 488.6 628.996 488.728C629.209 488.856 629.316 489.016 629.316 489.208V508.696H634.052C634.479 508.696 634.692 509.016 634.692 509.656V510.04C634.692 510.68 634.479 511 634.052 511H621.06ZM643.113 511.192C641.94 511.192 640.894 511.085 639.977 510.872C639.081 510.659 638.377 510.403 637.865 510.104C637.374 509.805 637.129 509.528 637.129 509.272C637.129 509.059 637.193 508.835 637.321 508.6C637.47 508.344 637.63 508.131 637.801 507.96C637.993 507.768 638.142 507.672 638.249 507.672C638.462 507.672 638.761 507.779 639.145 507.992C639.55 508.184 640.073 508.387 640.713 508.6C641.374 508.792 642.164 508.888 643.081 508.888C643.956 508.888 644.766 508.717 645.513 508.376C646.26 508.035 646.868 507.512 647.337 506.808C647.806 506.104 648.041 505.229 648.041 504.184C648.041 502.755 647.55 501.667 646.569 500.92C645.588 500.173 644.158 499.8 642.281 499.8H639.561C639.22 499.8 638.985 499.725 638.857 499.576C638.729 499.427 638.665 499.181 638.665 498.84L639.209 489.56C639.23 489.219 639.316 488.973 639.465 488.824C639.636 488.675 639.892 488.6 640.233 488.6H648.745C649.172 488.6 649.385 488.92 649.385 489.56V489.944C649.385 490.584 649.172 490.904 648.745 490.904H641.801L641.385 497.496H643.049C643.924 497.496 644.809 497.603 645.705 497.816C646.601 498.029 647.433 498.392 648.201 498.904C648.99 499.395 649.62 500.077 650.089 500.952C650.558 501.805 650.793 502.883 650.793 504.184C650.793 505.571 650.569 506.723 650.121 507.64C649.673 508.536 649.065 509.251 648.297 509.784C647.55 510.296 646.718 510.659 645.801 510.872C644.905 511.085 644.009 511.192 643.113 511.192ZM660.302 511.192C659.897 511.192 659.459 511.128 658.99 511C658.521 510.893 658.073 510.691 657.646 510.392C657.219 510.072 656.867 509.624 656.59 509.048C656.313 508.451 656.174 507.693 656.174 506.776V496.568H654.574C654.147 496.568 653.934 496.248 653.934 495.608V495.224C653.934 494.584 654.147 494.264 654.574 494.264H656.174L656.558 490.904C656.601 490.435 656.942 490.2 657.582 490.2H657.902C658.542 490.2 658.862 490.435 658.862 490.904V494.264H661.55C661.977 494.264 662.19 494.584 662.19 495.224V495.608C662.19 496.248 661.977 496.568 661.55 496.568H658.862V506.52C658.862 507.48 659.033 508.12 659.374 508.44C659.715 508.739 660.121 508.888 660.59 508.888C661.059 508.888 661.369 508.867 661.518 508.824C661.667 508.76 661.817 508.728 661.966 508.728C662.115 508.728 662.233 508.835 662.318 509.048C662.425 509.261 662.499 509.496 662.542 509.752C662.606 509.987 662.638 510.147 662.638 510.232C662.638 510.509 662.499 510.723 662.222 510.872C661.966 511 661.657 511.085 661.294 511.128C660.931 511.171 660.601 511.192 660.302 511.192ZM667.911 511.064C667.058 511.064 666.632 510.829 666.632 510.36V487.64C666.632 487.171 667.058 486.936 667.911 486.936H668.04C668.893 486.936 669.32 487.171 669.32 487.64V496.28C669.874 495.725 670.568 495.224 671.4 494.776C672.253 494.307 673.192 494.072 674.216 494.072C674.728 494.072 675.272 494.147 675.848 494.296C676.445 494.424 677 494.669 677.512 495.032C678.045 495.395 678.472 495.917 678.792 496.6C679.133 497.283 679.304 498.168 679.304 499.256V510.36C679.304 510.829 678.877 511.064 678.024 511.064H677.896C677.042 511.064 676.616 510.829 676.616 510.36V499.512C676.616 498.573 676.338 497.827 675.784 497.272C675.25 496.696 674.44 496.408 673.352 496.408C672.754 496.408 672.21 496.525 671.72 496.76C671.229 496.973 670.802 497.229 670.44 497.528C670.077 497.827 669.8 498.093 669.608 498.328C669.416 498.541 669.32 498.648 669.32 498.648V510.36C669.32 510.829 668.893 511.064 668.04 511.064H667.911ZM691.741 511C691.613 511 691.495 510.925 691.389 510.776C691.303 510.627 691.229 510.445 691.165 510.232C691.122 509.997 691.101 509.784 691.101 509.592C691.101 509.315 691.143 509.133 691.229 509.048L699.485 498.68C700.167 497.784 700.658 497.08 700.957 496.568C701.255 496.056 701.447 495.619 701.533 495.256C701.618 494.893 701.661 494.488 701.661 494.04C701.661 493.016 701.298 492.205 700.573 491.608C699.869 491.011 698.898 490.712 697.661 490.712C696.701 490.712 695.89 490.851 695.229 491.128C694.589 491.405 694.077 491.683 693.693 491.96C693.33 492.216 693.053 492.344 692.861 492.344C692.754 492.344 692.615 492.248 692.445 492.056C692.295 491.843 692.157 491.608 692.029 491.352C691.901 491.096 691.837 490.893 691.837 490.744C691.837 490.403 692.039 490.093 692.445 489.816C692.85 489.539 693.362 489.293 693.981 489.08C694.599 488.867 695.229 488.707 695.869 488.6C696.53 488.472 697.106 488.408 697.597 488.408C699.687 488.408 701.341 488.899 702.557 489.88C703.794 490.84 704.413 492.163 704.413 493.848C704.413 494.467 704.359 495.032 704.253 495.544C704.167 496.056 703.986 496.589 703.709 497.144C703.431 497.699 703.015 498.36 702.461 499.128C701.927 499.875 701.223 500.792 700.349 501.88C699.474 502.968 698.386 504.301 697.085 505.88L694.749 508.728H703.965C704.391 508.728 704.605 509.048 704.605 509.688V510.04C704.605 510.68 704.391 511 703.965 511H691.741ZM715.138 511.192C713.858 511.192 712.663 510.797 711.554 510.008C710.466 509.219 709.58 507.981 708.898 506.296C708.215 504.611 707.874 502.445 707.874 499.8C707.874 497.133 708.215 494.968 708.898 493.304C709.58 491.619 710.466 490.381 711.554 489.592C712.663 488.803 713.858 488.408 715.138 488.408C716.439 488.408 717.644 488.803 718.754 489.592C719.863 490.381 720.759 491.619 721.442 493.304C722.124 494.968 722.466 497.133 722.466 499.8C722.466 502.445 722.124 504.611 721.442 506.296C720.759 507.981 719.863 509.219 718.754 510.008C717.644 510.797 716.439 511.192 715.138 511.192ZM715.138 508.888C715.906 508.888 716.642 508.6 717.346 508.024C718.05 507.427 718.626 506.467 719.074 505.144C719.522 503.821 719.746 502.04 719.746 499.8C719.746 497.56 719.522 495.779 719.074 494.456C718.626 493.133 718.05 492.184 717.346 491.608C716.642 491.011 715.906 490.712 715.138 490.712C714.37 490.712 713.634 491.011 712.93 491.608C712.247 492.184 711.682 493.133 711.234 494.456C710.807 495.779 710.594 497.56 710.594 499.8C710.594 502.04 710.807 503.821 711.234 505.144C711.682 506.467 712.247 507.427 712.93 508.024C713.634 508.6 714.37 508.888 715.138 508.888ZM725.991 511C725.863 511 725.745 510.925 725.639 510.776C725.553 510.627 725.479 510.445 725.415 510.232C725.372 509.997 725.351 509.784 725.351 509.592C725.351 509.315 725.393 509.133 725.479 509.048L733.735 498.68C734.417 497.784 734.908 497.08 735.207 496.568C735.505 496.056 735.697 495.619 735.783 495.256C735.868 494.893 735.911 494.488 735.911 494.04C735.911 493.016 735.548 492.205 734.823 491.608C734.119 491.011 733.148 490.712 731.911 490.712C730.951 490.712 730.14 490.851 729.479 491.128C728.839 491.405 728.327 491.683 727.943 491.96C727.58 492.216 727.303 492.344 727.111 492.344C727.004 492.344 726.865 492.248 726.695 492.056C726.545 491.843 726.407 491.608 726.279 491.352C726.151 491.096 726.087 490.893 726.087 490.744C726.087 490.403 726.289 490.093 726.695 489.816C727.1 489.539 727.612 489.293 728.231 489.08C728.849 488.867 729.479 488.707 730.119 488.6C730.78 488.472 731.356 488.408 731.847 488.408C733.937 488.408 735.591 488.899 736.807 489.88C738.044 490.84 738.663 492.163 738.663 493.848C738.663 494.467 738.609 495.032 738.503 495.544C738.417 496.056 738.236 496.589 737.959 497.144C737.681 497.699 737.265 498.36 736.711 499.128C736.177 499.875 735.473 500.792 734.599 501.88C733.724 502.968 732.636 504.301 731.335 505.88L728.999 508.728H738.215C738.641 508.728 738.855 509.048 738.855 509.688V510.04C738.855 510.68 738.641 511 738.215 511H725.991ZM752.876 511.064C752.236 511.064 751.916 510.829 751.916 510.36V505.656H742.188C742.081 505.656 741.964 505.56 741.836 505.368C741.708 505.176 741.601 504.952 741.516 504.696C741.452 504.44 741.42 504.216 741.42 504.024C741.42 503.832 741.441 503.715 741.484 503.672L752.012 488.984C752.118 488.835 752.268 488.728 752.46 488.664C752.673 488.579 752.886 488.536 753.1 488.536H753.612C754.252 488.536 754.572 488.771 754.572 489.24V503.352H756.716C757.142 503.352 757.356 503.672 757.356 504.312V504.696C757.356 505.336 757.142 505.656 756.716 505.656H754.572V510.36C754.572 510.829 754.252 511.064 753.612 511.064H752.876ZM744.588 503.352H751.916V495.416C751.916 495.053 751.926 494.637 751.948 494.168C751.969 493.699 752.012 493.293 752.076 492.952L751.948 492.888L744.588 503.352Z" fill="white"/>
<g clip-path="url(#clip0_7_63)">
<mask id="mask0_7_63" style="mask-type:luminance" maskUnits="userSpaceOnUse" x="501" y="101" width="230" height="227">
<path d="M731 101H501V328H731V101Z" fill="white"/>
</mask>
<g mask="url(#mask0_7_63)">
<path d="M731 101H501V328H731V101Z" fill="#6401E3"/>
<path d="M678.084 180.504C671.028 180.504 668.157 183.337 668.157 190.302C668.157 197.148 671.028 199.981 678.084 199.981H695.307C700.449 199.981 702.722 202.106 702.722 207.3C702.722 212.375 700.449 214.5 695.307 214.5H678.084C672.822 214.5 670.669 212.375 670.669 207.3C670.669 200.453 667.799 197.502 660.862 197.502C655.599 197.502 653.447 195.378 653.447 190.302C653.447 183.337 650.576 180.504 643.52 180.504C636.583 180.504 633.713 183.337 633.713 190.302V207.3C633.713 212.375 631.56 214.5 626.297 214.5C621.155 214.5 619.002 212.375 619.002 207.3V156.188C619.002 151.113 621.155 148.988 626.297 148.988C633.234 148.988 636.224 146.037 636.224 139.19C636.224 134.115 638.377 131.872 643.52 131.872H678.084C683.227 131.872 685.38 134.115 685.38 139.19C685.38 146.037 688.37 148.988 695.307 148.988C700.449 148.988 702.722 151.113 702.722 156.188V173.186C702.722 178.38 700.449 180.504 695.307 180.504H678.084ZM643.52 146.509C636.583 146.509 633.713 149.342 633.713 156.188C633.713 163.153 636.583 165.986 643.52 165.986H678.084C685.021 165.986 687.891 163.153 687.891 156.188C687.891 149.342 685.021 146.509 678.084 146.509H643.52Z" fill="white"/>
<path d="M600.87 257.003C606.507 257.003 608.998 259.333 608.998 265.026C608.998 270.719 606.507 273.048 600.87 273.048C593.266 273.048 589.988 276.153 589.988 283.658C589.988 289.351 587.629 291.68 581.991 291.68H544.103C538.466 291.68 536.106 289.351 536.106 283.658C536.106 276.153 532.829 273.048 525.225 273.048C519.588 273.048 517.228 270.719 517.228 265.026C517.228 259.333 519.588 257.003 525.225 257.003C530.993 257.003 533.353 259.333 533.353 265.026C533.353 272.53 536.5 275.636 544.103 275.636H581.991C589.595 275.636 592.741 272.53 592.741 265.026C592.741 257.521 589.595 254.416 581.991 254.416H563.113C557.344 254.416 554.985 252.087 554.985 246.394C554.985 240.7 557.344 238.371 563.113 238.371H581.991C589.595 238.371 592.741 235.266 592.741 227.761C592.741 220.257 589.595 217.151 581.991 217.151H563.113C555.378 217.151 552.232 220.257 552.232 227.761C552.232 233.454 549.872 235.784 544.103 235.784C538.466 235.784 536.106 233.454 536.106 227.761C536.106 222.068 538.466 219.739 544.103 219.739C551.838 219.739 554.985 216.634 554.985 209.129C554.985 203.436 557.344 201.107 563.113 201.107H581.991C587.629 201.107 589.988 203.436 589.988 209.129C589.988 216.634 593.266 219.739 600.87 219.739C606.507 219.739 608.998 222.068 608.998 227.761C608.998 233.454 606.507 235.784 600.87 235.784C593.266 235.784 589.988 238.889 589.988 246.394C589.988 253.898 593.266 257.003 600.87 257.003Z" fill="white"/>
<path d="M699.454 259.403C705.091 259.403 707.582 261.732 707.582 267.425C707.582 272.989 705.091 275.318 699.454 275.318C691.85 275.318 688.573 278.553 688.573 286.057C688.573 291.621 686.213 293.95 680.576 293.95H623.809C618.172 293.95 615.812 291.621 615.812 286.057V267.425C615.812 261.732 618.172 259.403 623.809 259.403C631.413 259.403 634.691 256.298 634.691 248.664C634.691 241.159 631.413 238.054 623.809 238.054C618.172 238.054 615.812 235.725 615.812 230.031C615.812 224.468 618.172 222.139 623.809 222.139C631.413 222.139 634.691 218.904 634.691 211.399C634.691 205.835 637.051 203.377 642.688 203.377H661.697C667.335 203.377 669.694 205.835 669.694 211.399C669.694 218.904 672.841 222.139 680.576 222.139C686.213 222.139 688.573 224.468 688.573 230.031C688.573 235.725 686.213 238.054 680.576 238.054C674.807 238.054 672.448 235.725 672.448 230.031C672.448 222.527 669.301 219.421 661.697 219.421H642.688C635.084 219.421 631.938 222.527 631.938 230.031C631.938 237.665 635.084 240.771 642.688 240.771H661.697C667.335 240.771 669.694 243.1 669.694 248.664C669.694 254.357 667.335 256.686 661.697 256.686H642.688C635.084 256.686 631.938 259.791 631.938 267.425C631.938 274.93 635.084 278.035 642.688 278.035H680.576C688.18 278.035 691.326 274.93 691.326 267.425C691.326 261.732 693.686 259.403 699.454 259.403Z" fill="white"/>
<path d="M609.676 148.988C614.819 148.988 617.092 151.113 617.092 156.188C617.092 161.382 614.819 163.507 609.676 163.507C604.414 163.507 602.261 161.382 602.261 156.188C602.261 149.342 599.391 146.509 592.454 146.509H557.89C550.953 146.509 548.082 149.342 548.082 156.188C548.082 163.153 550.953 165.986 557.89 165.986H575.232C580.374 165.986 582.527 168.11 582.527 173.186C582.527 178.38 580.374 180.504 575.232 180.504H557.89C550.953 180.504 548.082 183.337 548.082 190.302V207.3C548.082 212.375 545.93 214.5 540.667 214.5C535.524 214.5 533.372 212.375 533.372 207.3V156.188C533.372 151.113 535.524 148.988 540.667 148.988C547.604 148.988 550.594 146.037 550.594 139.19C550.594 134.115 552.747 131.872 557.89 131.872H592.454C597.597 131.872 599.75 134.115 599.75 139.19C599.75 146.037 602.74 148.988 609.676 148.988Z" fill="white"/>
</g>
</g>
<defs>
<clipPath id="clip0_7_63">
<rect width="230" height="227" fill="white" transform="translate(501 101)"/>
</clipPath>
</defs>
</svg>
