<svg width="425" height="100" viewBox="0 0 425 100" fill="none" xmlns="http://www.w3.org/2000/svg">
<g clip-path="url(#clip0_1_29)">
<rect width="425" height="100" fill="#6401E3"/>
<path d="M76.9931 35.024C73.9251 35.024 72.6771 36.272 72.6771 39.34C72.6771 42.356 73.9251 43.604 76.9931 43.604H84.4811C86.7171 43.604 87.7051 44.54 87.7051 46.828C87.7051 49.064 86.7171 50 84.4811 50H76.9931C74.7051 50 73.7691 49.064 73.7691 46.828C73.7691 43.812 72.5211 42.512 69.5051 42.512C67.2171 42.512 66.2811 41.576 66.2811 39.34C66.2811 36.272 65.0331 35.024 61.9651 35.024C58.9491 35.024 57.7011 36.272 57.7011 39.34V46.828C57.7011 49.064 56.7651 50 54.4771 50C52.2411 50 51.3051 49.064 51.3051 46.828V24.312C51.3051 22.076 52.2411 21.14 54.4771 21.14C57.4931 21.14 58.7931 19.84 58.7931 16.824C58.7931 14.588 59.7291 13.6 61.9651 13.6H76.9931C79.2291 13.6 80.1651 14.588 80.1651 16.824C80.1651 19.84 81.4651 21.14 84.4811 21.14C86.7171 21.14 87.7051 22.076 87.7051 24.312V31.8C87.7051 34.088 86.7171 35.024 84.4811 35.024H76.9931ZM61.9651 20.048C58.9491 20.048 57.7011 21.296 57.7011 24.312C57.7011 27.38 58.9491 28.628 61.9651 28.628H76.9931C80.0091 28.628 81.2571 27.38 81.2571 24.312C81.2571 21.296 80.0091 20.048 76.9931 20.048H61.9651Z" fill="white"/>
<path d="M43.4216 68.724C45.8726 68.724 46.9556 69.75 46.9556 72.258C46.9556 74.766 45.8726 75.792 43.4216 75.792C40.1156 75.792 38.6906 77.16 38.6906 80.466C38.6906 82.974 37.6646 84 35.2136 84H18.7406C16.2896 84 15.2636 82.974 15.2636 80.466C15.2636 77.16 13.8386 75.792 10.5326 75.792C8.08157 75.792 7.05557 74.766 7.05557 72.258C7.05557 69.75 8.08157 68.724 10.5326 68.724C13.0406 68.724 14.0666 69.75 14.0666 72.258C14.0666 75.564 15.4346 76.932 18.7406 76.932H35.2136C38.5196 76.932 39.8876 75.564 39.8876 72.258C39.8876 68.952 38.5196 67.584 35.2136 67.584H27.0056C24.4976 67.584 23.4716 66.558 23.4716 64.05C23.4716 61.542 24.4976 60.516 27.0056 60.516H35.2136C38.5196 60.516 39.8876 59.148 39.8876 55.842C39.8876 52.536 38.5196 51.168 35.2136 51.168H27.0056C23.6426 51.168 22.2746 52.536 22.2746 55.842C22.2746 58.35 21.2486 59.376 18.7406 59.376C16.2896 59.376 15.2636 58.35 15.2636 55.842C15.2636 53.334 16.2896 52.308 18.7406 52.308C22.1036 52.308 23.4716 50.94 23.4716 47.634C23.4716 45.126 24.4976 44.1 27.0056 44.1H35.2136C37.6646 44.1 38.6906 45.126 38.6906 47.634C38.6906 50.94 40.1156 52.308 43.4216 52.308C45.8726 52.308 46.9556 53.334 46.9556 55.842C46.9556 58.35 45.8726 59.376 43.4216 59.376C40.1156 59.376 38.6906 60.744 38.6906 64.05C38.6906 67.356 40.1156 68.724 43.4216 68.724Z" fill="white"/>
<path d="M86.2844 69.781C88.7354 69.781 89.8184 70.807 89.8184 73.315C89.8184 75.766 88.7354 76.792 86.2844 76.792C82.9784 76.792 81.5534 78.217 81.5534 81.523C81.5534 83.974 80.5274 85 78.0764 85H53.3954C50.9444 85 49.9184 83.974 49.9184 81.523V73.315C49.9184 70.807 50.9444 69.781 53.3954 69.781C56.7014 69.781 58.1264 68.413 58.1264 65.05C58.1264 61.744 56.7014 60.376 53.3954 60.376C50.9444 60.376 49.9184 59.35 49.9184 56.842C49.9184 54.391 50.9444 53.365 53.3954 53.365C56.7014 53.365 58.1264 51.94 58.1264 48.634C58.1264 46.183 59.1524 45.1 61.6034 45.1H69.8684C72.3194 45.1 73.3454 46.183 73.3454 48.634C73.3454 51.94 74.7134 53.365 78.0764 53.365C80.5274 53.365 81.5534 54.391 81.5534 56.842C81.5534 59.35 80.5274 60.376 78.0764 60.376C75.5684 60.376 74.5424 59.35 74.5424 56.842C74.5424 53.536 73.1744 52.168 69.8684 52.168H61.6034C58.2974 52.168 56.9294 53.536 56.9294 56.842C56.9294 60.205 58.2974 61.573 61.6034 61.573H69.8684C72.3194 61.573 73.3454 62.599 73.3454 65.05C73.3454 67.558 72.3194 68.584 69.8684 68.584H61.6034C58.2974 68.584 56.9294 69.952 56.9294 73.315C56.9294 76.621 58.2974 77.989 61.6034 77.989H78.0764C81.3824 77.989 82.7504 76.621 82.7504 73.315C82.7504 70.807 83.7764 69.781 86.2844 69.781Z" fill="white"/>
<path d="M47.2506 21.14C49.4866 21.14 50.4746 22.076 50.4746 24.312C50.4746 26.6 49.4866 27.536 47.2506 27.536C44.9626 27.536 44.0266 26.6 44.0266 24.312C44.0266 21.296 42.7786 20.048 39.7626 20.048H24.7346C21.7186 20.048 20.4706 21.296 20.4706 24.312C20.4706 27.38 21.7186 28.628 24.7346 28.628H32.2746C34.5106 28.628 35.4466 29.564 35.4466 31.8C35.4466 34.088 34.5106 35.024 32.2746 35.024H24.7346C21.7186 35.024 20.4706 36.272 20.4706 39.34V46.828C20.4706 49.064 19.5346 50 17.2466 50C15.0106 50 14.0746 49.064 14.0746 46.828V24.312C14.0746 22.076 15.0106 21.14 17.2466 21.14C20.2626 21.14 21.5626 19.84 21.5626 16.824C21.5626 14.588 22.4986 13.6 24.7346 13.6H39.7626C41.9986 13.6 42.9346 14.588 42.9346 16.824C42.9346 19.84 44.2346 21.14 47.2506 21.14Z" fill="white"/>
<rect x="100" width="325" height="109" fill="white"/>
<path d="M113.784 43.048C113.176 43.048 112.872 42.872 112.872 42.52V26.92C112.872 26.664 112.92 26.48 113.016 26.368C113.128 26.256 113.296 26.2 113.52 26.2H119.76C120.064 26.2 120.216 26.44 120.216 26.92V27.304C120.216 27.784 120.064 28.024 119.76 28.024H115.032V33.976H119.352C119.656 33.976 119.808 34.216 119.808 34.696V35.08C119.808 35.56 119.656 35.8 119.352 35.8H115.032V42.52C115.032 42.872 114.728 43.048 114.12 43.048H113.784ZM124.148 43.048C123.508 43.048 123.188 42.872 123.188 42.52V30.928C123.188 30.576 123.508 30.4 124.148 30.4H124.244C124.884 30.4 125.204 30.576 125.204 30.928V42.52C125.204 42.872 124.884 43.048 124.244 43.048H124.148ZM124.196 28.72C123.492 28.72 123.14 28.544 123.14 28.192V26.752C123.14 26.4 123.492 26.224 124.196 26.224C124.9 26.224 125.252 26.4 125.252 26.752V28.192C125.252 28.544 124.9 28.72 124.196 28.72ZM130.002 43.048C129.41 43.048 129.114 42.872 129.114 42.52V34.048C129.114 33.008 129.074 32.256 128.994 31.792C128.914 31.328 128.874 31.072 128.874 31.024C128.874 30.832 129.042 30.696 129.378 30.616C129.73 30.52 130.026 30.472 130.266 30.472C130.49 30.472 130.642 30.576 130.722 30.784C130.818 30.992 130.89 31.232 130.938 31.504C130.986 31.776 131.018 31.976 131.034 32.104C131.402 31.544 131.85 31.104 132.378 30.784C132.906 30.464 133.466 30.304 134.058 30.304C135.05 30.304 135.818 30.64 136.362 31.312C136.906 31.968 137.178 32.88 137.178 34.048V42.52C137.178 42.872 136.874 43.048 136.266 43.048H136.026C135.402 43.048 135.09 42.872 135.09 42.52V34.24C135.09 33.536 134.946 33 134.658 32.632C134.37 32.248 133.946 32.056 133.386 32.056C132.954 32.056 132.538 32.216 132.138 32.536C131.738 32.84 131.418 33.24 131.178 33.736V42.52C131.178 42.872 130.874 43.048 130.266 43.048H130.002ZM143.548 43.144C142.476 43.144 141.62 42.824 140.98 42.184C140.356 41.528 140.044 40.608 140.044 39.424C140.044 38.224 140.356 37.304 140.98 36.664C141.604 36.024 142.38 35.6 143.308 35.392C144.236 35.168 145.3 35.048 146.5 35.032V33.904C146.5 33.36 146.332 32.912 145.996 32.56C145.66 32.208 145.132 32.032 144.412 32.032C143.852 32.032 143.356 32.104 142.924 32.248C142.508 32.376 142.148 32.52 141.844 32.68C141.54 32.824 141.364 32.896 141.316 32.896C141.156 32.896 140.972 32.744 140.764 32.44C140.572 32.12 140.476 31.88 140.476 31.72C140.476 31.512 140.66 31.296 141.028 31.072C141.412 30.848 141.908 30.664 142.516 30.52C143.14 30.376 143.78 30.304 144.436 30.304C145.716 30.304 146.716 30.624 147.436 31.264C148.156 31.904 148.516 32.792 148.516 33.928V39.448C148.516 40.504 148.564 41.264 148.66 41.728C148.756 42.176 148.804 42.424 148.804 42.472C148.804 42.664 148.652 42.808 148.348 42.904C148.044 42.984 147.764 43.024 147.508 43.024C147.268 43.024 147.092 42.904 146.98 42.664C146.868 42.408 146.764 42.056 146.668 41.608C145.82 42.632 144.78 43.144 143.548 43.144ZM143.956 41.248C144.996 41.248 145.844 40.792 146.5 39.88V36.784C145.604 36.8 144.86 36.864 144.268 36.976C143.692 37.088 143.196 37.336 142.78 37.72C142.364 38.088 142.156 38.648 142.156 39.4C142.156 40.632 142.756 41.248 143.956 41.248ZM153.135 43.048C152.543 43.048 152.247 42.872 152.247 42.52V34.048C152.247 33.008 152.207 32.256 152.127 31.792C152.047 31.328 152.007 31.072 152.007 31.024C152.007 30.832 152.175 30.696 152.511 30.616C152.863 30.52 153.159 30.472 153.399 30.472C153.623 30.472 153.775 30.576 153.855 30.784C153.951 30.992 154.023 31.232 154.071 31.504C154.119 31.776 154.151 31.976 154.167 32.104C154.535 31.544 154.983 31.104 155.511 30.784C156.039 30.464 156.599 30.304 157.191 30.304C158.183 30.304 158.951 30.64 159.495 31.312C160.039 31.968 160.311 32.88 160.311 34.048V42.52C160.311 42.872 160.007 43.048 159.399 43.048H159.159C158.535 43.048 158.223 42.872 158.223 42.52V34.24C158.223 33.536 158.079 33 157.791 32.632C157.503 32.248 157.079 32.056 156.519 32.056C156.087 32.056 155.671 32.216 155.271 32.536C154.871 32.84 154.551 33.24 154.311 33.736V42.52C154.311 42.872 154.007 43.048 153.399 43.048H153.135ZM168.097 43.144C166.385 43.144 165.113 42.632 164.281 41.608C163.465 40.584 163.057 38.936 163.057 36.664C163.057 34.312 163.489 32.664 164.353 31.72C165.233 30.776 166.457 30.304 168.025 30.304C168.761 30.304 169.441 30.416 170.065 30.64C170.705 30.864 171.025 31.12 171.025 31.408C171.025 31.6 170.929 31.864 170.737 32.2C170.561 32.536 170.409 32.704 170.281 32.704C170.265 32.704 170.177 32.672 170.017 32.608C169.345 32.224 168.697 32.032 168.073 32.032C167.129 32.032 166.417 32.392 165.937 33.112C165.473 33.816 165.241 34.984 165.241 36.616C165.241 38.312 165.465 39.536 165.913 40.288C166.361 41.04 167.105 41.416 168.145 41.416C168.881 41.416 169.545 41.24 170.137 40.888C170.201 40.856 170.257 40.824 170.305 40.792C170.369 40.744 170.417 40.712 170.449 40.696C170.609 40.696 170.777 40.856 170.953 41.176C171.145 41.48 171.241 41.728 171.241 41.92C171.241 42.096 171.065 42.28 170.713 42.472C170.377 42.664 169.961 42.824 169.465 42.952C168.969 43.08 168.513 43.144 168.097 43.144ZM174.75 43.048C174.11 43.048 173.79 42.872 173.79 42.52V30.928C173.79 30.576 174.11 30.4 174.75 30.4H174.846C175.486 30.4 175.806 30.576 175.806 30.928V42.52C175.806 42.872 175.486 43.048 174.846 43.048H174.75ZM174.798 28.72C174.094 28.72 173.742 28.544 173.742 28.192V26.752C173.742 26.4 174.094 26.224 174.798 26.224C175.502 26.224 175.854 26.4 175.854 26.752V28.192C175.854 28.544 175.502 28.72 174.798 28.72ZM182.572 43.144C181.5 43.144 180.644 42.824 180.004 42.184C179.38 41.528 179.068 40.608 179.068 39.424C179.068 38.224 179.38 37.304 180.004 36.664C180.628 36.024 181.404 35.6 182.332 35.392C183.26 35.168 184.324 35.048 185.524 35.032V33.904C185.524 33.36 185.356 32.912 185.02 32.56C184.684 32.208 184.156 32.032 183.436 32.032C182.876 32.032 182.38 32.104 181.948 32.248C181.532 32.376 181.172 32.52 180.868 32.68C180.564 32.824 180.388 32.896 180.34 32.896C180.18 32.896 179.996 32.744 179.788 32.44C179.596 32.12 179.5 31.88 179.5 31.72C179.5 31.512 179.684 31.296 180.052 31.072C180.436 30.848 180.932 30.664 181.54 30.52C182.164 30.376 182.804 30.304 183.46 30.304C184.74 30.304 185.74 30.624 186.46 31.264C187.18 31.904 187.54 32.792 187.54 33.928V39.448C187.54 40.504 187.588 41.264 187.684 41.728C187.78 42.176 187.828 42.424 187.828 42.472C187.828 42.664 187.676 42.808 187.372 42.904C187.068 42.984 186.788 43.024 186.532 43.024C186.292 43.024 186.116 42.904 186.004 42.664C185.892 42.408 185.788 42.056 185.692 41.608C184.844 42.632 183.804 43.144 182.572 43.144ZM182.98 41.248C184.02 41.248 184.868 40.792 185.524 39.88V36.784C184.628 36.8 183.884 36.864 183.292 36.976C182.716 37.088 182.22 37.336 181.804 37.72C181.388 38.088 181.18 38.648 181.18 39.4C181.18 40.632 181.78 41.248 182.98 41.248ZM193.766 43.144C193.11 43.144 192.518 42.936 191.99 42.52C191.478 42.088 191.222 41.328 191.222 40.24V25.48C191.222 25.128 191.542 24.952 192.182 24.952H192.278C192.918 24.952 193.238 25.128 193.238 25.48V40.048C193.238 40.96 193.534 41.416 194.126 41.416C194.318 41.416 194.478 41.4 194.606 41.368C194.734 41.32 194.83 41.296 194.894 41.296C195.038 41.296 195.158 41.448 195.254 41.752C195.35 42.04 195.398 42.264 195.398 42.424C195.398 42.664 195.222 42.848 194.87 42.976C194.518 43.088 194.15 43.144 193.766 43.144ZM201.908 43.048C201.3 43.048 200.996 42.872 200.996 42.52V26.92C200.996 26.664 201.044 26.48 201.14 26.368C201.252 26.256 201.42 26.2 201.644 26.2H205.196C206.78 26.2 207.956 26.536 208.724 27.208C209.492 27.88 209.876 28.96 209.876 30.448C209.876 31.44 209.676 32.28 209.276 32.968C208.892 33.64 208.356 34.152 207.668 34.504V34.6C207.988 34.76 208.268 35.072 208.508 35.536C208.748 36 209.02 36.688 209.324 37.6L210.836 42.328C210.884 42.472 210.908 42.584 210.908 42.664C210.908 42.92 210.596 43.048 209.972 43.048H209.564C209.34 43.048 209.14 43.016 208.964 42.952C208.804 42.872 208.708 42.776 208.676 42.664L207.236 37.96C206.948 37.048 206.62 36.432 206.252 36.112C205.9 35.776 205.372 35.608 204.668 35.608H203.156V42.52C203.156 42.872 202.852 43.048 202.244 43.048H201.908ZM205.556 33.784C206.132 33.784 206.62 33.496 207.02 32.92C207.436 32.328 207.644 31.632 207.644 30.832C207.644 29.888 207.444 29.184 207.044 28.72C206.66 28.256 206.116 28.024 205.412 28.024H203.132V33.784H205.556ZM214.453 43.048C213.813 43.048 213.493 42.872 213.493 42.52V30.928C213.493 30.576 213.813 30.4 214.453 30.4H214.549C215.189 30.4 215.509 30.576 215.509 30.928V42.52C215.509 42.872 215.189 43.048 214.549 43.048H214.453ZM214.501 28.72C213.797 28.72 213.445 28.544 213.445 28.192V26.752C213.445 26.4 213.797 26.224 214.501 26.224C215.205 26.224 215.557 26.4 215.557 26.752V28.192C215.557 28.544 215.205 28.72 214.501 28.72ZM222.827 48.088C219.979 48.088 218.555 47.056 218.555 44.992C218.555 44.32 218.723 43.712 219.059 43.168C219.411 42.64 219.883 42.224 220.475 41.92V41.872C220.235 41.68 220.043 41.432 219.899 41.128C219.771 40.824 219.707 40.488 219.707 40.12C219.707 39.176 220.083 38.44 220.835 37.912C219.635 37.32 219.035 36.16 219.035 34.432C219.035 33.184 219.379 32.184 220.067 31.432C220.755 30.68 221.739 30.304 223.019 30.304C223.419 30.304 223.795 30.352 224.147 30.448H227.747C228.067 30.448 228.227 30.68 228.227 31.144V31.432C228.227 31.672 228.187 31.848 228.107 31.96C228.043 32.056 227.923 32.104 227.747 32.104C227.059 32.104 226.595 32.088 226.355 32.056L226.307 32.104C226.739 32.792 226.955 33.56 226.955 34.408C226.955 35.576 226.627 36.536 225.971 37.288C225.315 38.024 224.395 38.416 223.211 38.464C222.059 38.512 221.483 39 221.483 39.928C221.483 40.408 221.667 40.736 222.035 40.912C222.403 41.072 222.987 41.208 223.787 41.32L224.291 41.392C225.299 41.536 226.099 41.864 226.691 42.376C227.283 42.872 227.579 43.592 227.579 44.536C227.579 45.688 227.179 46.568 226.379 47.176C225.579 47.784 224.395 48.088 222.827 48.088ZM222.995 36.784C223.635 36.784 224.147 36.616 224.531 36.28C224.915 35.944 225.107 35.336 225.107 34.456C225.107 33.496 224.915 32.832 224.531 32.464C224.163 32.096 223.651 31.912 222.995 31.912C222.339 31.912 221.827 32.096 221.459 32.464C221.091 32.832 220.907 33.496 220.907 34.456C220.907 35.336 221.091 35.944 221.459 36.28C221.827 36.616 222.339 36.784 222.995 36.784ZM222.995 46.48C224.803 46.48 225.707 45.904 225.707 44.752C225.707 44.304 225.579 43.952 225.323 43.696C225.083 43.456 224.787 43.28 224.435 43.168C224.083 43.072 223.603 42.984 222.995 42.904C222.387 42.84 221.907 42.752 221.555 42.64C221.219 42.832 220.947 43.104 220.739 43.456C220.531 43.808 220.427 44.216 220.427 44.68C220.427 45.88 221.283 46.48 222.995 46.48ZM231.7 43.048C231.092 43.048 230.788 42.872 230.788 42.52V25.48C230.788 25.128 231.092 24.952 231.7 24.952H231.964C232.556 24.952 232.852 25.128 232.852 25.48V31.912C233.188 31.416 233.604 31.024 234.1 30.736C234.612 30.448 235.172 30.304 235.78 30.304C236.66 30.304 237.388 30.616 237.964 31.24C238.556 31.848 238.852 32.784 238.852 34.048V42.52C238.852 42.872 238.548 43.048 237.94 43.048H237.7C237.092 43.048 236.788 42.872 236.788 42.52V34.24C236.788 33.536 236.644 33 236.356 32.632C236.068 32.248 235.644 32.056 235.084 32.056C234.54 32.056 234.06 32.248 233.644 32.632C233.228 33.016 232.964 33.384 232.852 33.736V42.52C232.852 42.872 232.548 43.048 231.94 43.048H231.7ZM245.364 43.144C244.66 43.144 244.036 42.936 243.492 42.52C242.948 42.088 242.676 41.328 242.676 40.24V32.176H241.884C241.724 32.176 241.604 32.12 241.524 32.008C241.444 31.896 241.404 31.712 241.404 31.456V31.168C241.404 30.912 241.444 30.728 241.524 30.616C241.604 30.504 241.724 30.448 241.884 30.448H242.676L242.964 27.928C242.996 27.576 243.252 27.4 243.732 27.4H243.972C244.452 27.4 244.692 27.576 244.692 27.928V30.448H246.276C246.452 30.448 246.572 30.504 246.636 30.616C246.716 30.728 246.756 30.912 246.756 31.168V31.456C246.756 31.712 246.716 31.896 246.636 32.008C246.572 32.12 246.452 32.176 246.276 32.176H244.692V39.904C244.692 40.48 244.772 40.88 244.932 41.104C245.092 41.312 245.324 41.416 245.628 41.416C245.836 41.416 246.012 41.4 246.156 41.368C246.3 41.32 246.396 41.296 246.444 41.296C246.588 41.296 246.708 41.44 246.804 41.728C246.9 42.016 246.948 42.256 246.948 42.448C246.948 42.704 246.78 42.888 246.444 43C246.124 43.096 245.764 43.144 245.364 43.144ZM251.649 43.216C251.073 43.216 250.529 43.136 250.017 42.976C249.521 42.8 249.121 42.592 248.817 42.352C248.529 42.112 248.385 41.904 248.385 41.728C248.385 41.552 248.489 41.304 248.697 40.984C248.905 40.664 249.073 40.504 249.201 40.504C249.233 40.504 249.369 40.592 249.609 40.768C249.865 40.944 250.153 41.104 250.473 41.248C250.793 41.376 251.153 41.44 251.553 41.44C252.145 41.44 252.593 41.296 252.897 41.008C253.217 40.704 253.377 40.264 253.377 39.688C253.377 39.144 253.201 38.696 252.849 38.344C252.513 37.976 251.985 37.624 251.265 37.288C250.385 36.872 249.729 36.392 249.297 35.848C248.881 35.304 248.673 34.584 248.673 33.688C248.673 32.68 249.001 31.864 249.657 31.24C250.329 30.6 251.177 30.28 252.201 30.28C252.857 30.28 253.465 30.384 254.025 30.592C254.585 30.8 254.865 31.04 254.865 31.312C254.865 31.504 254.769 31.768 254.577 32.104C254.401 32.44 254.249 32.608 254.121 32.608C254.089 32.608 253.897 32.512 253.545 32.32C253.209 32.112 252.801 32.008 252.321 32.008C251.857 32.008 251.465 32.136 251.145 32.392C250.841 32.648 250.689 33.008 250.689 33.472C250.689 33.984 250.841 34.4 251.145 34.72C251.465 35.04 251.913 35.344 252.489 35.632C253.481 36.112 254.201 36.648 254.649 37.24C255.113 37.832 255.345 38.632 255.345 39.64C255.345 40.712 254.993 41.576 254.289 42.232C253.585 42.888 252.705 43.216 251.649 43.216ZM261.927 43C261.703 43 261.535 42.944 261.423 42.832C261.327 42.72 261.279 42.536 261.279 42.28V26.92C261.279 26.664 261.327 26.48 261.423 26.368C261.535 26.256 261.703 26.2 261.927 26.2H268.839C269.143 26.2 269.295 26.44 269.295 26.92V27.304C269.295 27.784 269.143 28.024 268.839 28.024H263.439V33.496H268.287C268.591 33.496 268.743 33.736 268.743 34.216V34.6C268.743 35.08 268.591 35.32 268.287 35.32H263.439V41.176H268.839C268.999 41.176 269.111 41.232 269.175 41.344C269.255 41.456 269.295 41.64 269.295 41.896V42.28C269.295 42.536 269.255 42.72 269.175 42.832C269.111 42.944 268.999 43 268.839 43H261.927ZM282.952 30.304C283.832 30.304 284.56 30.632 285.136 31.288C285.712 31.928 286 32.896 286 34.192V42.52C286 42.872 285.696 43.048 285.088 43.048H284.848C284.24 43.048 283.936 42.872 283.936 42.52V34.384C283.936 33.632 283.8 33.056 283.528 32.656C283.256 32.256 282.848 32.056 282.304 32.056C281.808 32.056 281.36 32.24 280.96 32.608C280.576 32.96 280.304 33.36 280.144 33.808V34.192V42.52C280.144 42.872 279.848 43.048 279.256 43.048H278.992C278.384 43.048 278.08 42.872 278.08 42.52V34.384C278.08 33.632 277.944 33.056 277.672 32.656C277.4 32.256 276.984 32.056 276.424 32.056C275.896 32.056 275.432 32.248 275.032 32.632C274.632 33.016 274.384 33.384 274.288 33.736V42.52C274.288 42.872 273.984 43.048 273.376 43.048H273.112C272.52 43.048 272.224 42.872 272.224 42.52V34.048C272.224 33.008 272.184 32.256 272.104 31.792C272.024 31.328 271.984 31.072 271.984 31.024C271.984 30.832 272.152 30.696 272.488 30.616C272.84 30.52 273.136 30.472 273.376 30.472C273.6 30.472 273.752 30.576 273.832 30.784C273.928 30.992 274 31.232 274.048 31.504C274.096 31.776 274.128 31.976 274.144 32.104C274.464 31.56 274.88 31.128 275.392 30.808C275.92 30.472 276.488 30.304 277.096 30.304C277.704 30.304 278.248 30.456 278.728 30.76C279.224 31.048 279.592 31.512 279.832 32.152C280.216 31.592 280.68 31.144 281.224 30.808C281.768 30.472 282.344 30.304 282.952 30.304ZM290.409 47.992C289.801 47.992 289.497 47.816 289.497 47.464V34.048C289.497 33.008 289.457 32.256 289.377 31.792C289.297 31.312 289.257 31.048 289.257 31C289.257 30.808 289.425 30.672 289.761 30.592C290.097 30.512 290.393 30.472 290.649 30.472C290.873 30.472 291.025 30.576 291.105 30.784C291.201 30.992 291.273 31.24 291.321 31.528C291.369 31.8 291.401 31.992 291.417 32.104C291.785 31.512 292.209 31.064 292.689 30.76C293.185 30.456 293.713 30.304 294.273 30.304C295.041 30.304 295.713 30.576 296.289 31.12C296.865 31.664 297.305 32.432 297.609 33.424C297.913 34.4 298.065 35.52 298.065 36.784C298.065 38.784 297.705 40.344 296.985 41.464C296.265 42.584 295.297 43.144 294.081 43.144C293.537 43.144 293.065 43.04 292.665 42.832C292.281 42.624 291.913 42.32 291.561 41.92V47.464C291.561 47.816 291.257 47.992 290.649 47.992H290.409ZM293.601 41.368C295.153 41.368 295.929 39.848 295.929 36.808C295.929 35.304 295.745 34.136 295.377 33.304C295.025 32.472 294.497 32.056 293.793 32.056C293.393 32.056 292.993 32.2 292.593 32.488C292.209 32.776 291.865 33.184 291.561 33.712V40.288C292.121 41.008 292.801 41.368 293.601 41.368ZM305.01 43.144C303.506 43.144 302.354 42.6 301.554 41.512C300.77 40.424 300.378 38.848 300.378 36.784C300.378 34.704 300.77 33.104 301.554 31.984C302.354 30.864 303.506 30.304 305.01 30.304C306.498 30.304 307.626 30.864 308.394 31.984C309.178 33.088 309.57 34.688 309.57 36.784C309.57 38.864 309.186 40.448 308.418 41.536C307.65 42.608 306.514 43.144 305.01 43.144ZM304.962 41.416C305.81 41.416 306.434 41.04 306.834 40.288C307.25 39.52 307.458 38.336 307.458 36.736C307.458 35.136 307.25 33.952 306.834 33.184C306.434 32.416 305.81 32.032 304.962 32.032C304.114 32.032 303.49 32.416 303.09 33.184C302.706 33.936 302.514 35.12 302.514 36.736C302.514 38.336 302.706 39.52 303.09 40.288C303.49 41.04 304.114 41.416 304.962 41.416ZM314.293 43.048C313.765 43.048 313.477 42.92 313.429 42.664L310.885 31.288C310.837 31 310.813 30.84 310.813 30.808C310.813 30.536 311.141 30.4 311.797 30.4C312.485 30.4 312.853 30.528 312.901 30.784L314.245 38.44L314.365 39.016L314.725 40.984H314.845C314.893 40.664 315.053 39.808 315.325 38.416L316.789 30.808C316.853 30.536 317.133 30.4 317.629 30.4H318.085C318.597 30.4 318.885 30.536 318.949 30.808L320.437 38.416L320.581 39.112C320.741 39.864 320.853 40.48 320.917 40.96H321.037L321.301 39.496C321.397 39.128 321.469 38.776 321.517 38.44L322.837 30.784C322.885 30.528 323.253 30.4 323.941 30.4C324.565 30.4 324.877 30.536 324.877 30.808L324.829 31.216L322.261 42.664C322.213 42.92 321.925 43.048 321.397 43.048H320.581C320.053 43.048 319.765 42.92 319.717 42.664L318.277 35.584C318.101 34.656 317.981 33.944 317.917 33.448H317.821C317.773 33.944 317.653 34.656 317.461 35.584L315.997 42.664C315.933 42.92 315.645 43.048 315.133 43.048H314.293ZM331.152 43.144C329.456 43.144 328.192 42.624 327.36 41.584C326.544 40.544 326.136 38.952 326.136 36.808C326.136 34.68 326.536 33.064 327.336 31.96C328.136 30.856 329.312 30.304 330.864 30.304C332.256 30.304 333.304 30.84 334.008 31.912C334.712 32.968 335.064 34.52 335.064 36.568C335.064 36.712 334.968 36.912 334.776 37.168C334.584 37.424 334.416 37.552 334.272 37.552H328.296C328.376 38.912 328.632 39.896 329.064 40.504C329.496 41.112 330.184 41.416 331.128 41.416C331.704 41.416 332.184 41.336 332.568 41.176C332.952 41.016 333.264 40.848 333.504 40.672C333.744 40.496 333.888 40.408 333.936 40.408C334.096 40.408 334.272 40.568 334.464 40.888C334.672 41.208 334.776 41.448 334.776 41.608C334.776 41.8 334.608 42.024 334.272 42.28C333.952 42.52 333.512 42.728 332.952 42.904C332.392 43.064 331.792 43.144 331.152 43.144ZM332.928 35.824C332.928 33.296 332.216 32.032 330.792 32.032C329.256 32.032 328.424 33.296 328.296 35.824H332.928ZM338.858 43.048C338.218 43.048 337.898 42.872 337.898 42.52V34.048C337.898 32.992 337.85 32.24 337.754 31.792C337.658 31.328 337.61 31.072 337.61 31.024C337.61 30.832 337.762 30.696 338.066 30.616C338.37 30.52 338.65 30.472 338.906 30.472C339.13 30.472 339.29 30.592 339.386 30.832C339.498 31.072 339.578 31.328 339.626 31.6C339.69 31.856 339.73 32.024 339.746 32.104C340.514 30.904 341.354 30.304 342.266 30.304C342.666 30.304 342.97 30.392 343.178 30.568C343.402 30.728 343.514 30.952 343.514 31.24C343.514 31.512 343.466 31.8 343.37 32.104C343.274 32.392 343.162 32.536 343.034 32.536C342.954 32.536 342.81 32.496 342.602 32.416C342.394 32.32 342.146 32.272 341.858 32.272C341.442 32.272 341.042 32.448 340.658 32.8C340.29 33.136 340.042 33.448 339.914 33.736V42.52C339.914 42.872 339.594 43.048 338.954 43.048H338.858ZM356.592 30.304C357.472 30.304 358.2 30.632 358.776 31.288C359.352 31.928 359.64 32.896 359.64 34.192V42.52C359.64 42.872 359.336 43.048 358.728 43.048H358.488C357.88 43.048 357.576 42.872 357.576 42.52V34.384C357.576 33.632 357.44 33.056 357.168 32.656C356.896 32.256 356.488 32.056 355.944 32.056C355.448 32.056 355 32.24 354.6 32.608C354.216 32.96 353.944 33.36 353.784 33.808V34.192V42.52C353.784 42.872 353.488 43.048 352.896 43.048H352.632C352.024 43.048 351.72 42.872 351.72 42.52V34.384C351.72 33.632 351.584 33.056 351.312 32.656C351.04 32.256 350.624 32.056 350.064 32.056C349.536 32.056 349.072 32.248 348.672 32.632C348.272 33.016 348.024 33.384 347.928 33.736V42.52C347.928 42.872 347.624 43.048 347.016 43.048H346.752C346.16 43.048 345.864 42.872 345.864 42.52V34.048C345.864 33.008 345.824 32.256 345.744 31.792C345.664 31.328 345.624 31.072 345.624 31.024C345.624 30.832 345.792 30.696 346.128 30.616C346.48 30.52 346.776 30.472 347.016 30.472C347.24 30.472 347.392 30.576 347.472 30.784C347.568 30.992 347.64 31.232 347.688 31.504C347.736 31.776 347.768 31.976 347.784 32.104C348.104 31.56 348.52 31.128 349.032 30.808C349.56 30.472 350.128 30.304 350.736 30.304C351.344 30.304 351.888 30.456 352.368 30.76C352.864 31.048 353.232 31.512 353.472 32.152C353.856 31.592 354.32 31.144 354.864 30.808C355.408 30.472 355.984 30.304 356.592 30.304ZM367.41 43.144C365.714 43.144 364.45 42.624 363.618 41.584C362.802 40.544 362.394 38.952 362.394 36.808C362.394 34.68 362.794 33.064 363.594 31.96C364.394 30.856 365.57 30.304 367.122 30.304C368.514 30.304 369.562 30.84 370.266 31.912C370.97 32.968 371.322 34.52 371.322 36.568C371.322 36.712 371.226 36.912 371.034 37.168C370.842 37.424 370.674 37.552 370.53 37.552H364.554C364.634 38.912 364.89 39.896 365.322 40.504C365.754 41.112 366.442 41.416 367.386 41.416C367.962 41.416 368.442 41.336 368.826 41.176C369.21 41.016 369.522 40.848 369.762 40.672C370.002 40.496 370.146 40.408 370.194 40.408C370.354 40.408 370.53 40.568 370.722 40.888C370.93 41.208 371.034 41.448 371.034 41.608C371.034 41.8 370.866 42.024 370.53 42.28C370.21 42.52 369.77 42.728 369.21 42.904C368.65 43.064 368.05 43.144 367.41 43.144ZM369.186 35.824C369.186 33.296 368.474 32.032 367.05 32.032C365.514 32.032 364.682 33.296 364.554 35.824H369.186ZM374.924 43.048C374.332 43.048 374.036 42.872 374.036 42.52V34.048C374.036 33.008 373.996 32.256 373.916 31.792C373.836 31.328 373.796 31.072 373.796 31.024C373.796 30.832 373.964 30.696 374.3 30.616C374.652 30.52 374.948 30.472 375.188 30.472C375.412 30.472 375.564 30.576 375.644 30.784C375.74 30.992 375.812 31.232 375.86 31.504C375.908 31.776 375.94 31.976 375.956 32.104C376.324 31.544 376.772 31.104 377.3 30.784C377.828 30.464 378.388 30.304 378.98 30.304C379.972 30.304 380.74 30.64 381.284 31.312C381.828 31.968 382.1 32.88 382.1 34.048V42.52C382.1 42.872 381.796 43.048 381.188 43.048H380.948C380.324 43.048 380.012 42.872 380.012 42.52V34.24C380.012 33.536 379.868 33 379.58 32.632C379.292 32.248 378.868 32.056 378.308 32.056C377.876 32.056 377.46 32.216 377.06 32.536C376.66 32.84 376.34 33.24 376.1 33.736V42.52C376.1 42.872 375.796 43.048 375.188 43.048H374.924ZM388.614 43.144C387.91 43.144 387.286 42.936 386.742 42.52C386.198 42.088 385.926 41.328 385.926 40.24V32.176H385.134C384.974 32.176 384.854 32.12 384.774 32.008C384.694 31.896 384.654 31.712 384.654 31.456V31.168C384.654 30.912 384.694 30.728 384.774 30.616C384.854 30.504 384.974 30.448 385.134 30.448H385.926L386.214 27.928C386.246 27.576 386.502 27.4 386.982 27.4H387.222C387.702 27.4 387.942 27.576 387.942 27.928V30.448H389.526C389.702 30.448 389.822 30.504 389.886 30.616C389.966 30.728 390.006 30.912 390.006 31.168V31.456C390.006 31.712 389.966 31.896 389.886 32.008C389.822 32.12 389.702 32.176 389.526 32.176H387.942V39.904C387.942 40.48 388.022 40.88 388.182 41.104C388.342 41.312 388.574 41.416 388.878 41.416C389.086 41.416 389.262 41.4 389.406 41.368C389.55 41.32 389.646 41.296 389.694 41.296C389.838 41.296 389.958 41.44 390.054 41.728C390.15 42.016 390.198 42.256 390.198 42.448C390.198 42.704 390.03 42.888 389.694 43C389.374 43.096 389.014 43.144 388.614 43.144ZM112.2 71.048C111.608 71.048 111.312 70.912 111.312 70.64C111.312 70.592 111.328 70.488 111.36 70.328L115.704 54.608C115.8 54.304 116.12 54.152 116.664 54.152H117.432C118.008 54.152 118.328 54.304 118.392 54.608L122.736 70.328C122.784 70.44 122.808 70.544 122.808 70.64C122.808 70.768 122.728 70.872 122.568 70.952C122.424 71.016 122.208 71.048 121.92 71.048H121.512C121 71.048 120.712 70.92 120.648 70.664L119.616 66.728H114.456L113.448 70.664C113.384 70.92 113.096 71.048 112.584 71.048H112.2ZM119.088 64.904L117.384 58.328C117.336 58.12 117.248 57.632 117.12 56.864H117C116.968 56.976 116.936 57.16 116.904 57.416L116.712 58.328L115.008 64.904H119.088ZM125.877 71.048C125.285 71.048 124.989 70.872 124.989 70.52V62.048C124.989 61.008 124.949 60.256 124.869 59.792C124.789 59.328 124.749 59.072 124.749 59.024C124.749 58.832 124.917 58.696 125.253 58.616C125.605 58.52 125.901 58.472 126.141 58.472C126.365 58.472 126.517 58.576 126.597 58.784C126.693 58.992 126.765 59.232 126.813 59.504C126.861 59.776 126.893 59.976 126.909 60.104C127.277 59.544 127.725 59.104 128.253 58.784C128.781 58.464 129.341 58.304 129.933 58.304C130.925 58.304 131.693 58.64 132.237 59.312C132.781 59.968 133.053 60.88 133.053 62.048V70.52C133.053 70.872 132.749 71.048 132.141 71.048H131.901C131.277 71.048 130.965 70.872 130.965 70.52V62.24C130.965 61.536 130.821 61 130.533 60.632C130.245 60.248 129.821 60.056 129.261 60.056C128.829 60.056 128.413 60.216 128.013 60.536C127.613 60.84 127.293 61.24 127.053 61.736V70.52C127.053 70.872 126.749 71.048 126.141 71.048H125.877ZM139.591 71.144C138.839 71.144 138.175 70.872 137.599 70.328C137.039 69.784 136.599 69.024 136.279 68.048C135.975 67.072 135.823 65.944 135.823 64.664C135.823 62.664 136.183 61.104 136.903 59.984C137.623 58.864 138.583 58.304 139.783 58.304C140.343 58.304 140.815 58.408 141.199 58.616C141.599 58.824 141.975 59.128 142.327 59.528V53.48C142.327 53.128 142.623 52.952 143.215 52.952H143.479C144.087 52.952 144.391 53.128 144.391 53.48V67.448C144.391 68.456 144.431 69.2 144.511 69.68C144.591 70.16 144.631 70.432 144.631 70.496C144.631 70.672 144.455 70.808 144.103 70.904C143.767 70.984 143.479 71.024 143.239 71.024C142.999 71.024 142.831 70.912 142.735 70.688C142.655 70.464 142.591 70.208 142.543 69.92C142.495 69.632 142.463 69.44 142.447 69.344C142.079 69.936 141.647 70.384 141.151 70.688C140.671 70.992 140.151 71.144 139.591 71.144ZM140.095 69.392C140.495 69.392 140.887 69.248 141.271 68.96C141.671 68.672 142.023 68.264 142.327 67.736V61.16C141.783 60.44 141.111 60.08 140.311 60.08C138.743 60.08 137.959 61.6 137.959 64.64C137.959 66.144 138.135 67.312 138.487 68.144C138.855 68.976 139.391 69.392 140.095 69.392ZM152.075 71C151.851 71 151.683 70.944 151.571 70.832C151.475 70.72 151.427 70.536 151.427 70.28V54.92C151.427 54.664 151.475 54.48 151.571 54.368C151.683 54.256 151.851 54.2 152.075 54.2H158.987C159.291 54.2 159.443 54.44 159.443 54.92V55.304C159.443 55.784 159.291 56.024 158.987 56.024H153.587V61.496H158.435C158.739 61.496 158.891 61.736 158.891 62.216V62.6C158.891 63.08 158.739 63.32 158.435 63.32H153.587V69.176H158.987C159.147 69.176 159.259 69.232 159.323 69.344C159.403 69.456 159.443 69.64 159.443 69.896V70.28C159.443 70.536 159.403 70.72 159.323 70.832C159.259 70.944 159.147 71 158.987 71H152.075ZM163.26 71.048C162.668 71.048 162.372 70.872 162.372 70.52V62.048C162.372 61.008 162.332 60.256 162.252 59.792C162.172 59.328 162.132 59.072 162.132 59.024C162.132 58.832 162.3 58.696 162.636 58.616C162.988 58.52 163.284 58.472 163.524 58.472C163.748 58.472 163.9 58.576 163.98 58.784C164.076 58.992 164.148 59.232 164.196 59.504C164.244 59.776 164.276 59.976 164.292 60.104C164.66 59.544 165.108 59.104 165.636 58.784C166.164 58.464 166.724 58.304 167.316 58.304C168.308 58.304 169.076 58.64 169.62 59.312C170.164 59.968 170.436 60.88 170.436 62.048V70.52C170.436 70.872 170.132 71.048 169.524 71.048H169.284C168.66 71.048 168.348 70.872 168.348 70.52V62.24C168.348 61.536 168.204 61 167.916 60.632C167.628 60.248 167.204 60.056 166.644 60.056C166.212 60.056 165.796 60.216 165.396 60.536C164.996 60.84 164.676 61.24 164.436 61.736V70.52C164.436 70.872 164.132 71.048 163.524 71.048H163.26ZM176.806 71.144C175.734 71.144 174.878 70.824 174.238 70.184C173.614 69.528 173.302 68.608 173.302 67.424C173.302 66.224 173.614 65.304 174.238 64.664C174.862 64.024 175.638 63.6 176.566 63.392C177.494 63.168 178.558 63.048 179.758 63.032V61.904C179.758 61.36 179.59 60.912 179.254 60.56C178.918 60.208 178.39 60.032 177.67 60.032C177.11 60.032 176.614 60.104 176.182 60.248C175.766 60.376 175.406 60.52 175.102 60.68C174.798 60.824 174.622 60.896 174.574 60.896C174.414 60.896 174.23 60.744 174.022 60.44C173.83 60.12 173.734 59.88 173.734 59.72C173.734 59.512 173.918 59.296 174.286 59.072C174.67 58.848 175.166 58.664 175.774 58.52C176.398 58.376 177.038 58.304 177.694 58.304C178.974 58.304 179.974 58.624 180.694 59.264C181.414 59.904 181.774 60.792 181.774 61.928V67.448C181.774 68.504 181.822 69.264 181.918 69.728C182.014 70.176 182.062 70.424 182.062 70.472C182.062 70.664 181.91 70.808 181.606 70.904C181.302 70.984 181.022 71.024 180.766 71.024C180.526 71.024 180.35 70.904 180.238 70.664C180.126 70.408 180.022 70.056 179.926 69.608C179.078 70.632 178.038 71.144 176.806 71.144ZM177.214 69.248C178.254 69.248 179.102 68.792 179.758 67.88V64.784C178.862 64.8 178.118 64.864 177.526 64.976C176.95 65.088 176.454 65.336 176.038 65.72C175.622 66.088 175.414 66.648 175.414 67.4C175.414 68.632 176.014 69.248 177.214 69.248ZM189.777 71.144C188.065 71.144 186.793 70.632 185.961 69.608C185.145 68.584 184.737 66.936 184.737 64.664C184.737 62.312 185.169 60.664 186.033 59.72C186.913 58.776 188.137 58.304 189.705 58.304C190.441 58.304 191.121 58.416 191.745 58.64C192.385 58.864 192.705 59.12 192.705 59.408C192.705 59.6 192.609 59.864 192.417 60.2C192.241 60.536 192.089 60.704 191.961 60.704C191.945 60.704 191.857 60.672 191.697 60.608C191.025 60.224 190.377 60.032 189.753 60.032C188.809 60.032 188.097 60.392 187.617 61.112C187.153 61.816 186.921 62.984 186.921 64.616C186.921 66.312 187.145 67.536 187.593 68.288C188.041 69.04 188.785 69.416 189.825 69.416C190.561 69.416 191.225 69.24 191.817 68.888C191.881 68.856 191.937 68.824 191.985 68.792C192.049 68.744 192.097 68.712 192.129 68.696C192.289 68.696 192.457 68.856 192.633 69.176C192.825 69.48 192.921 69.728 192.921 69.92C192.921 70.096 192.745 70.28 192.393 70.472C192.057 70.664 191.641 70.824 191.145 70.952C190.649 71.08 190.193 71.144 189.777 71.144ZM198.302 71.144C197.598 71.144 196.974 70.936 196.43 70.52C195.886 70.088 195.614 69.328 195.614 68.24V60.176H194.822C194.662 60.176 194.542 60.12 194.462 60.008C194.382 59.896 194.342 59.712 194.342 59.456V59.168C194.342 58.912 194.382 58.728 194.462 58.616C194.542 58.504 194.662 58.448 194.822 58.448H195.614L195.902 55.928C195.934 55.576 196.19 55.4 196.67 55.4H196.91C197.39 55.4 197.63 55.576 197.63 55.928V58.448H199.214C199.39 58.448 199.51 58.504 199.574 58.616C199.654 58.728 199.694 58.912 199.694 59.168V59.456C199.694 59.712 199.654 59.896 199.574 60.008C199.51 60.12 199.39 60.176 199.214 60.176H197.63V67.904C197.63 68.48 197.71 68.88 197.87 69.104C198.03 69.312 198.262 69.416 198.566 69.416C198.774 69.416 198.95 69.4 199.094 69.368C199.238 69.32 199.334 69.296 199.382 69.296C199.526 69.296 199.646 69.44 199.742 69.728C199.838 70.016 199.886 70.256 199.886 70.448C199.886 70.704 199.718 70.888 199.382 71C199.062 71.096 198.702 71.144 198.302 71.144ZM213.178 58.304C214.058 58.304 214.786 58.632 215.362 59.288C215.938 59.928 216.226 60.896 216.226 62.192V70.52C216.226 70.872 215.922 71.048 215.314 71.048H215.074C214.466 71.048 214.162 70.872 214.162 70.52V62.384C214.162 61.632 214.026 61.056 213.754 60.656C213.482 60.256 213.074 60.056 212.53 60.056C212.034 60.056 211.586 60.24 211.186 60.608C210.802 60.96 210.53 61.36 210.37 61.808V62.192V70.52C210.37 70.872 210.074 71.048 209.482 71.048H209.218C208.61 71.048 208.306 70.872 208.306 70.52V62.384C208.306 61.632 208.17 61.056 207.898 60.656C207.626 60.256 207.21 60.056 206.65 60.056C206.122 60.056 205.658 60.248 205.258 60.632C204.858 61.016 204.61 61.384 204.514 61.736V70.52C204.514 70.872 204.21 71.048 203.602 71.048H203.338C202.746 71.048 202.45 70.872 202.45 70.52V62.048C202.45 61.008 202.41 60.256 202.33 59.792C202.25 59.328 202.21 59.072 202.21 59.024C202.21 58.832 202.378 58.696 202.714 58.616C203.066 58.52 203.362 58.472 203.602 58.472C203.826 58.472 203.978 58.576 204.058 58.784C204.154 58.992 204.226 59.232 204.274 59.504C204.322 59.776 204.354 59.976 204.37 60.104C204.69 59.56 205.106 59.128 205.618 58.808C206.146 58.472 206.714 58.304 207.322 58.304C207.93 58.304 208.474 58.456 208.954 58.76C209.45 59.048 209.818 59.512 210.058 60.152C210.442 59.592 210.906 59.144 211.45 58.808C211.994 58.472 212.57 58.304 213.178 58.304ZM223.996 71.144C222.3 71.144 221.036 70.624 220.204 69.584C219.388 68.544 218.98 66.952 218.98 64.808C218.98 62.68 219.38 61.064 220.18 59.96C220.98 58.856 222.156 58.304 223.708 58.304C225.1 58.304 226.148 58.84 226.852 59.912C227.556 60.968 227.908 62.52 227.908 64.568C227.908 64.712 227.812 64.912 227.62 65.168C227.428 65.424 227.26 65.552 227.116 65.552H221.14C221.22 66.912 221.476 67.896 221.908 68.504C222.34 69.112 223.028 69.416 223.972 69.416C224.548 69.416 225.028 69.336 225.412 69.176C225.796 69.016 226.108 68.848 226.348 68.672C226.588 68.496 226.732 68.408 226.78 68.408C226.94 68.408 227.116 68.568 227.308 68.888C227.516 69.208 227.62 69.448 227.62 69.608C227.62 69.8 227.452 70.024 227.116 70.28C226.796 70.52 226.356 70.728 225.796 70.904C225.236 71.064 224.636 71.144 223.996 71.144ZM225.772 63.824C225.772 61.296 225.06 60.032 223.636 60.032C222.1 60.032 221.268 61.296 221.14 63.824H225.772ZM231.51 71.048C230.918 71.048 230.622 70.872 230.622 70.52V62.048C230.622 61.008 230.582 60.256 230.502 59.792C230.422 59.328 230.382 59.072 230.382 59.024C230.382 58.832 230.55 58.696 230.886 58.616C231.238 58.52 231.534 58.472 231.774 58.472C231.998 58.472 232.15 58.576 232.23 58.784C232.326 58.992 232.398 59.232 232.446 59.504C232.494 59.776 232.526 59.976 232.542 60.104C232.91 59.544 233.358 59.104 233.886 58.784C234.414 58.464 234.974 58.304 235.566 58.304C236.558 58.304 237.326 58.64 237.87 59.312C238.414 59.968 238.686 60.88 238.686 62.048V70.52C238.686 70.872 238.382 71.048 237.774 71.048H237.534C236.91 71.048 236.598 70.872 236.598 70.52V62.24C236.598 61.536 236.454 61 236.166 60.632C235.878 60.248 235.454 60.056 234.894 60.056C234.462 60.056 234.046 60.216 233.646 60.536C233.246 60.84 232.926 61.24 232.686 61.736V70.52C232.686 70.872 232.382 71.048 231.774 71.048H231.51ZM245.2 71.144C244.496 71.144 243.872 70.936 243.328 70.52C242.784 70.088 242.512 69.328 242.512 68.24V60.176H241.72C241.56 60.176 241.44 60.12 241.36 60.008C241.28 59.896 241.24 59.712 241.24 59.456V59.168C241.24 58.912 241.28 58.728 241.36 58.616C241.44 58.504 241.56 58.448 241.72 58.448H242.512L242.8 55.928C242.832 55.576 243.088 55.4 243.568 55.4H243.808C244.288 55.4 244.528 55.576 244.528 55.928V58.448H246.112C246.288 58.448 246.408 58.504 246.472 58.616C246.552 58.728 246.592 58.912 246.592 59.168V59.456C246.592 59.712 246.552 59.896 246.472 60.008C246.408 60.12 246.288 60.176 246.112 60.176H244.528V67.904C244.528 68.48 244.608 68.88 244.768 69.104C244.928 69.312 245.16 69.416 245.464 69.416C245.672 69.416 245.848 69.4 245.992 69.368C246.136 69.32 246.232 69.296 246.28 69.296C246.424 69.296 246.544 69.44 246.64 69.728C246.736 70.016 246.784 70.256 246.784 70.448C246.784 70.704 246.616 70.888 246.28 71C245.96 71.096 245.6 71.144 245.2 71.144ZM253.734 71.048C253.126 71.048 252.822 70.872 252.822 70.52V54.68C252.822 54.328 253.126 54.152 253.734 54.152H254.094C254.686 54.152 254.982 54.328 254.982 54.68V70.52C254.982 70.872 254.686 71.048 254.094 71.048H253.734ZM259.799 71.048C259.207 71.048 258.911 70.872 258.911 70.52V62.048C258.911 61.008 258.871 60.256 258.791 59.792C258.711 59.328 258.671 59.072 258.671 59.024C258.671 58.832 258.839 58.696 259.175 58.616C259.527 58.52 259.823 58.472 260.063 58.472C260.287 58.472 260.439 58.576 260.519 58.784C260.615 58.992 260.687 59.232 260.735 59.504C260.783 59.776 260.815 59.976 260.831 60.104C261.199 59.544 261.647 59.104 262.175 58.784C262.703 58.464 263.263 58.304 263.855 58.304C264.847 58.304 265.615 58.64 266.159 59.312C266.703 59.968 266.975 60.88 266.975 62.048V70.52C266.975 70.872 266.671 71.048 266.063 71.048H265.823C265.199 71.048 264.887 70.872 264.887 70.52V62.24C264.887 61.536 264.743 61 264.455 60.632C264.167 60.248 263.743 60.056 263.183 60.056C262.751 60.056 262.335 60.216 261.935 60.536C261.535 60.84 261.215 61.24 260.975 61.736V70.52C260.975 70.872 260.671 71.048 260.063 71.048H259.799ZM274.442 71C274.218 71 274.05 70.944 273.938 70.832C273.842 70.72 273.794 70.536 273.794 70.28V54.92C273.794 54.664 273.842 54.48 273.938 54.368C274.05 54.256 274.218 54.2 274.442 54.2H281.354C281.658 54.2 281.81 54.44 281.81 54.92V55.304C281.81 55.784 281.658 56.024 281.354 56.024H275.954V61.496H280.802C281.106 61.496 281.258 61.736 281.258 62.216V62.6C281.258 63.08 281.106 63.32 280.802 63.32H275.954V69.176H281.354C281.514 69.176 281.626 69.232 281.69 69.344C281.77 69.456 281.81 69.64 281.81 69.896V70.28C281.81 70.536 281.77 70.72 281.69 70.832C281.626 70.944 281.514 71 281.354 71H274.442ZM287.619 71.168C286.627 71.168 285.859 70.864 285.315 70.256C284.771 69.632 284.499 68.776 284.499 67.688V58.952C284.499 58.6 284.803 58.424 285.411 58.424H285.651C286.259 58.424 286.563 58.6 286.563 58.952V67.376C286.563 68.032 286.707 68.536 286.995 68.888C287.283 69.24 287.707 69.416 288.267 69.416C288.715 69.416 289.131 69.264 289.515 68.96C289.915 68.656 290.243 68.248 290.499 67.736V58.952C290.499 58.6 290.803 58.424 291.411 58.424H291.651C292.259 58.424 292.563 58.6 292.563 58.952V67.424C292.563 68.464 292.603 69.224 292.683 69.704C292.763 70.168 292.803 70.424 292.803 70.472C292.803 70.664 292.635 70.8 292.299 70.88C291.963 70.96 291.667 71 291.411 71C291.187 71 291.027 70.896 290.931 70.688C290.851 70.48 290.787 70.24 290.739 69.968C290.691 69.696 290.659 69.496 290.643 69.368C290.275 69.928 289.827 70.368 289.299 70.688C288.771 71.008 288.211 71.168 287.619 71.168ZM297.397 71.048C296.757 71.048 296.437 70.872 296.437 70.52V62.048C296.437 60.992 296.389 60.24 296.293 59.792C296.197 59.328 296.149 59.072 296.149 59.024C296.149 58.832 296.301 58.696 296.605 58.616C296.909 58.52 297.189 58.472 297.445 58.472C297.669 58.472 297.829 58.592 297.925 58.832C298.037 59.072 298.117 59.328 298.165 59.6C298.229 59.856 298.269 60.024 298.285 60.104C299.053 58.904 299.893 58.304 300.805 58.304C301.205 58.304 301.509 58.392 301.717 58.568C301.941 58.728 302.053 58.952 302.053 59.24C302.053 59.512 302.005 59.8 301.909 60.104C301.813 60.392 301.701 60.536 301.573 60.536C301.493 60.536 301.349 60.496 301.141 60.416C300.933 60.32 300.685 60.272 300.397 60.272C299.981 60.272 299.581 60.448 299.197 60.8C298.829 61.136 298.581 61.448 298.453 61.736V70.52C298.453 70.872 298.133 71.048 297.493 71.048H297.397ZM307.823 71.144C306.319 71.144 305.167 70.6 304.367 69.512C303.583 68.424 303.191 66.848 303.191 64.784C303.191 62.704 303.583 61.104 304.367 59.984C305.167 58.864 306.319 58.304 307.823 58.304C309.311 58.304 310.439 58.864 311.207 59.984C311.991 61.088 312.383 62.688 312.383 64.784C312.383 66.864 311.999 68.448 311.231 69.536C310.463 70.608 309.327 71.144 307.823 71.144ZM307.775 69.416C308.623 69.416 309.247 69.04 309.647 68.288C310.063 67.52 310.271 66.336 310.271 64.736C310.271 63.136 310.063 61.952 309.647 61.184C309.247 60.416 308.623 60.032 307.775 60.032C306.927 60.032 306.303 60.416 305.903 61.184C305.519 61.936 305.327 63.12 305.327 64.736C305.327 66.336 305.519 67.52 305.903 68.288C306.303 69.04 306.927 69.416 307.775 69.416ZM316.284 75.992C315.676 75.992 315.372 75.816 315.372 75.464V62.048C315.372 61.008 315.332 60.256 315.252 59.792C315.172 59.312 315.132 59.048 315.132 59C315.132 58.808 315.3 58.672 315.636 58.592C315.972 58.512 316.268 58.472 316.524 58.472C316.748 58.472 316.9 58.576 316.98 58.784C317.076 58.992 317.148 59.24 317.196 59.528C317.244 59.8 317.276 59.992 317.292 60.104C317.66 59.512 318.084 59.064 318.564 58.76C319.06 58.456 319.588 58.304 320.148 58.304C320.916 58.304 321.588 58.576 322.164 59.12C322.74 59.664 323.18 60.432 323.484 61.424C323.788 62.4 323.94 63.52 323.94 64.784C323.94 66.784 323.58 68.344 322.86 69.464C322.14 70.584 321.172 71.144 319.956 71.144C319.412 71.144 318.94 71.04 318.54 70.832C318.156 70.624 317.788 70.32 317.436 69.92V75.464C317.436 75.816 317.132 75.992 316.524 75.992H316.284ZM319.476 69.368C321.028 69.368 321.804 67.848 321.804 64.808C321.804 63.304 321.62 62.136 321.252 61.304C320.9 60.472 320.372 60.056 319.668 60.056C319.268 60.056 318.868 60.2 318.468 60.488C318.084 60.776 317.74 61.184 317.436 61.712V68.288C317.996 69.008 318.676 69.368 319.476 69.368ZM331.269 71.144C329.573 71.144 328.309 70.624 327.477 69.584C326.661 68.544 326.253 66.952 326.253 64.808C326.253 62.68 326.653 61.064 327.453 59.96C328.253 58.856 329.429 58.304 330.981 58.304C332.373 58.304 333.421 58.84 334.125 59.912C334.829 60.968 335.181 62.52 335.181 64.568C335.181 64.712 335.085 64.912 334.893 65.168C334.701 65.424 334.533 65.552 334.389 65.552H328.413C328.493 66.912 328.749 67.896 329.181 68.504C329.613 69.112 330.301 69.416 331.245 69.416C331.821 69.416 332.301 69.336 332.685 69.176C333.069 69.016 333.381 68.848 333.621 68.672C333.861 68.496 334.005 68.408 334.053 68.408C334.213 68.408 334.389 68.568 334.581 68.888C334.789 69.208 334.893 69.448 334.893 69.608C334.893 69.8 334.725 70.024 334.389 70.28C334.069 70.52 333.629 70.728 333.069 70.904C332.509 71.064 331.909 71.144 331.269 71.144ZM333.045 63.824C333.045 61.296 332.333 60.032 330.909 60.032C329.373 60.032 328.541 61.296 328.413 63.824H333.045Z" fill="black"/>
</g>
<defs>
<clipPath id="clip0_1_29">
<rect width="425" height="100" fill="white"/>
</clipPath>
</defs>
</svg>
