<svg width="100" height="100" viewBox="0 0 100 100" fill="none" xmlns="http://www.w3.org/2000/svg">
<g clip-path="url(#clip0_23_14)">
<path d="M76.9931 35.024C73.9251 35.024 72.6771 36.272 72.6771 39.34C72.6771 42.356 73.9251 43.604 76.9931 43.604H84.4811C86.7171 43.604 87.7051 44.54 87.7051 46.828C87.7051 49.064 86.7171 50 84.4811 50H76.9931C74.7051 50 73.7691 49.064 73.7691 46.828C73.7691 43.812 72.5211 42.512 69.5051 42.512C67.2171 42.512 66.2811 41.576 66.2811 39.34C66.2811 36.272 65.0331 35.024 61.9651 35.024C58.9491 35.024 57.7011 36.272 57.7011 39.34V46.828C57.7011 49.064 56.7651 50 54.4771 50C52.2411 50 51.3051 49.064 51.3051 46.828V24.312C51.3051 22.076 52.2411 21.14 54.4771 21.14C57.4931 21.14 58.7931 19.84 58.7931 16.824C58.7931 14.588 59.7291 13.6 61.9651 13.6H76.9931C79.2291 13.6 80.1651 14.588 80.1651 16.824C80.1651 19.84 81.4651 21.14 84.4811 21.14C86.7171 21.14 87.7051 22.076 87.7051 24.312V31.8C87.7051 34.088 86.7171 35.024 84.4811 35.024H76.9931ZM61.9651 20.048C58.9491 20.048 57.7011 21.296 57.7011 24.312C57.7011 27.38 58.9491 28.628 61.9651 28.628H76.9931C80.0091 28.628 81.2571 27.38 81.2571 24.312C81.2571 21.296 80.0091 20.048 76.9931 20.048H61.9651Z" fill="#6401E3"/>
<path d="M43.4216 68.724C45.8726 68.724 46.9556 69.75 46.9556 72.258C46.9556 74.766 45.8726 75.792 43.4216 75.792C40.1156 75.792 38.6906 77.16 38.6906 80.466C38.6906 82.974 37.6646 84 35.2136 84H18.7406C16.2896 84 15.2636 82.974 15.2636 80.466C15.2636 77.16 13.8386 75.792 10.5326 75.792C8.08157 75.792 7.05557 74.766 7.05557 72.258C7.05557 69.75 8.08157 68.724 10.5326 68.724C13.0406 68.724 14.0666 69.75 14.0666 72.258C14.0666 75.564 15.4346 76.932 18.7406 76.932H35.2136C38.5196 76.932 39.8876 75.564 39.8876 72.258C39.8876 68.952 38.5196 67.584 35.2136 67.584H27.0056C24.4976 67.584 23.4716 66.558 23.4716 64.05C23.4716 61.542 24.4976 60.516 27.0056 60.516H35.2136C38.5196 60.516 39.8876 59.148 39.8876 55.842C39.8876 52.536 38.5196 51.168 35.2136 51.168H27.0056C23.6426 51.168 22.2746 52.536 22.2746 55.842C22.2746 58.35 21.2486 59.376 18.7406 59.376C16.2896 59.376 15.2636 58.35 15.2636 55.842C15.2636 53.334 16.2896 52.308 18.7406 52.308C22.1036 52.308 23.4716 50.94 23.4716 47.634C23.4716 45.126 24.4976 44.1 27.0056 44.1H35.2136C37.6646 44.1 38.6906 45.126 38.6906 47.634C38.6906 50.94 40.1156 52.308 43.4216 52.308C45.8726 52.308 46.9556 53.334 46.9556 55.842C46.9556 58.35 45.8726 59.376 43.4216 59.376C40.1156 59.376 38.6906 60.744 38.6906 64.05C38.6906 67.356 40.1156 68.724 43.4216 68.724Z" fill="#6401E3"/>
<path d="M86.2844 69.781C88.7354 69.781 89.8184 70.807 89.8184 73.315C89.8184 75.766 88.7354 76.792 86.2844 76.792C82.9784 76.792 81.5534 78.217 81.5534 81.523C81.5534 83.974 80.5274 85 78.0764 85H53.3954C50.9444 85 49.9184 83.974 49.9184 81.523V73.315C49.9184 70.807 50.9444 69.781 53.3954 69.781C56.7014 69.781 58.1264 68.413 58.1264 65.05C58.1264 61.744 56.7014 60.376 53.3954 60.376C50.9444 60.376 49.9184 59.35 49.9184 56.842C49.9184 54.391 50.9444 53.365 53.3954 53.365C56.7014 53.365 58.1264 51.94 58.1264 48.634C58.1264 46.183 59.1524 45.1 61.6034 45.1H69.8684C72.3194 45.1 73.3454 46.183 73.3454 48.634C73.3454 51.94 74.7134 53.365 78.0764 53.365C80.5274 53.365 81.5534 54.391 81.5534 56.842C81.5534 59.35 80.5274 60.376 78.0764 60.376C75.5684 60.376 74.5424 59.35 74.5424 56.842C74.5424 53.536 73.1744 52.168 69.8684 52.168H61.6034C58.2974 52.168 56.9294 53.536 56.9294 56.842C56.9294 60.205 58.2974 61.573 61.6034 61.573H69.8684C72.3194 61.573 73.3454 62.599 73.3454 65.05C73.3454 67.558 72.3194 68.584 69.8684 68.584H61.6034C58.2974 68.584 56.9294 69.952 56.9294 73.315C56.9294 76.621 58.2974 77.989 61.6034 77.989H78.0764C81.3824 77.989 82.7504 76.621 82.7504 73.315C82.7504 70.807 83.7764 69.781 86.2844 69.781Z" fill="#6401E3"/>
<path d="M47.2506 21.14C49.4866 21.14 50.4746 22.076 50.4746 24.312C50.4746 26.6 49.4866 27.536 47.2506 27.536C44.9626 27.536 44.0266 26.6 44.0266 24.312C44.0266 21.296 42.7786 20.048 39.7626 20.048H24.7346C21.7186 20.048 20.4706 21.296 20.4706 24.312C20.4706 27.38 21.7186 28.628 24.7346 28.628H32.2746C34.5106 28.628 35.4466 29.564 35.4466 31.8C35.4466 34.088 34.5106 35.024 32.2746 35.024H24.7346C21.7186 35.024 20.4706 36.272 20.4706 39.34V46.828C20.4706 49.064 19.5346 50 17.2466 50C15.0106 50 14.0746 49.064 14.0746 46.828V24.312C14.0746 22.076 15.0106 21.14 17.2466 21.14C20.2626 21.14 21.5626 19.84 21.5626 16.824C21.5626 14.588 22.4986 13.6 24.7346 13.6H39.7626C41.9986 13.6 42.9346 14.588 42.9346 16.824C42.9346 19.84 44.2346 21.14 47.2506 21.14Z" fill="#6401E3"/>
</g>
<defs>
<clipPath id="clip0_23_14">
<rect width="100" height="100" fill="white"/>
</clipPath>
</defs>
</svg>
